<?xml version="1.0" encoding="UTF-8" standalone="no"?>
<!DOCTYPE svg PUBLIC "-//W3C//DTD SVG 1.1//EN"
 "http://www.w3.org/Graphics/SVG/1.1/DTD/svg11.dtd">
<!-- Generated by graphviz version 2.40.1 (20161225.0304)
 -->
<!-- Title: logs Pages: 1 -->
<svg width="234pt" height="314pt"
 viewBox="0.00 0.00 234.00 314.00" xmlns="http://www.w3.org/2000/svg" xmlns:xlink="http://www.w3.org/1999/xlink">
<g id="graph0" class="graph" transform="scale(1 1) rotate(0) translate(4 310)">
<title>logs</title>
<polygon fill="#ffffff" stroke="transparent" points="-4,4 -4,-310 230,-310 230,4 -4,4"/>
<!-- logs -->
<g id="node1" class="node">
<title>logs</title>
<polygon fill="#efefef" stroke="transparent" points="46,-226 46,-260 180,-260 180,-226 46,-226"/>
<polygon fill="none" stroke="#000000" points="46,-226 46,-260 180,-260 180,-226 46,-226"/>
<text text-anchor="start" x="52.8682" y="-239.6" font-family="Arial Bold" font-size="18.00" fill="#000000">logs</text>
<text text-anchor="start" x="89.8701" y="-239.6" font-family="Arial" font-size="14.00" fill="#000000"> </text>
<text text-anchor="start" x="93.7598" y="-239.6" font-family="Arial" font-size="14.00" fill="#666666">[virtual table]</text>
<polygon fill="none" stroke="#000000" points="46,-196 46,-226 180,-226 180,-196 46,-196"/>
<text text-anchor="start" x="53" y="-208.8" font-family="Arial" font-size="14.00" fill="#000000">host </text>
<text text-anchor="start" x="83.3516" y="-208.8" font-family="Arial" font-size="14.00" fill="#666666">[]</text>
<polygon fill="none" stroke="#000000" points="46,-166 46,-196 180,-196 180,-166 46,-166"/>
<text text-anchor="start" x="53" y="-178.8" font-family="Arial" font-size="14.00" fill="#000000">path </text>
<text text-anchor="start" x="84.1377" y="-178.8" font-family="Arial" font-size="14.00" fill="#666666">[]</text>
<polygon fill="none" stroke="#000000" points="46,-136 46,-166 180,-166 180,-136 46,-136"/>
<text text-anchor="start" x="53" y="-148.8" font-family="Arial" font-size="14.00" fill="#000000">target_id </text>
<text text-anchor="start" x="111.3721" y="-148.8" font-family="Arial" font-size="14.00" fill="#666666">[]</text>
<polygon fill="none" stroke="#000000" points="46,-106 46,-136 180,-136 180,-106 46,-106"/>
<text text-anchor="start" x="53" y="-118.8" font-family="Arial" font-size="14.00" fill="#000000">ts </text>
<text text-anchor="start" x="67.7793" y="-118.8" font-family="Arial" font-size="14.00" fill="#666666">[]</text>
<polygon fill="none" stroke="#000000" points="46,-76 46,-106 180,-106 180,-76 46,-76"/>
<text text-anchor="start" x="53" y="-88.8" font-family="Arial" font-size="14.00" fill="#000000">filled_by_prev_ts </text>
<text text-anchor="start" x="161.9512" y="-88.8" font-family="Arial" font-size="14.00" fill="#666666">[]</text>
<polygon fill="none" stroke="#000000" points="46,-46 46,-76 180,-76 180,-46 46,-46"/>
<text text-anchor="start" x="53" y="-58.8" font-family="Arial" font-size="14.00" fill="#000000">content </text>
<text text-anchor="start" x="102.8135" y="-58.8" font-family="Arial" font-size="14.00" fill="#666666">[]</text>
<polygon fill="none" stroke="#000000" stroke-width="3" points="44.5,-44.5 44.5,-261.5 181.5,-261.5 181.5,-44.5 44.5,-44.5"/>
</g>
</g>
</svg>
