<?xml version="1.0" encoding="UTF-8" standalone="no"?>
<!DOCTYPE svg PUBLIC "-//W3C//DTD SVG 1.1//EN"
 "http://www.w3.org/Graphics/SVG/1.1/DTD/svg11.dtd">
<!-- Generated by graphviz version 2.40.1 (20161225.0304)
 -->
<!-- Title: logs Pages: 1 -->
<svg width="268pt" height="860pt"
 viewBox="0.00 0.00 267.50 860.00" xmlns="http://www.w3.org/2000/svg" xmlns:xlink="http://www.w3.org/1999/xlink">
<g id="graph0" class="graph" transform="scale(1 1) rotate(0) translate(4 856)">
<title>logs</title>
<polygon fill="#ffffff" stroke="transparent" points="-4,4 -4,-856 263.5,-856 263.5,4 -4,4"/>
<!-- logs -->
<g id="node1" class="node">
<title>logs</title>
<polygon fill="#efefef" stroke="transparent" points="77,-772 77,-806 211,-806 211,-772 77,-772"/>
<polygon fill="none" stroke="#000000" points="77,-772 77,-806 211,-806 211,-772 77,-772"/>
<text text-anchor="start" x="83.8682" y="-785.6" font-family="Arial Bold" font-size="18.00" fill="#000000">logs</text>
<text text-anchor="start" x="120.8701" y="-785.6" font-family="Arial" font-size="14.00" fill="#000000"> </text>
<text text-anchor="start" x="124.7598" y="-785.6" font-family="Arial" font-size="14.00" fill="#666666">[virtual table]</text>
<polygon fill="none" stroke="#000000" points="77,-742 77,-772 211,-772 211,-742 77,-742"/>
<text text-anchor="start" x="84" y="-754.8" font-family="Arial" font-size="14.00" fill="#000000">host </text>
<text text-anchor="start" x="114.3516" y="-754.8" font-family="Arial" font-size="14.00" fill="#666666">[]</text>
<polygon fill="none" stroke="#000000" points="77,-712 77,-742 211,-742 211,-712 77,-712"/>
<text text-anchor="start" x="84" y="-724.8" font-family="Arial" font-size="14.00" fill="#000000">path </text>
<text text-anchor="start" x="115.1377" y="-724.8" font-family="Arial" font-size="14.00" fill="#666666">[]</text>
<polygon fill="none" stroke="#000000" points="77,-682 77,-712 211,-712 211,-682 77,-682"/>
<text text-anchor="start" x="84" y="-694.8" font-family="Arial" font-size="14.00" fill="#000000">target_id </text>
<text text-anchor="start" x="142.3721" y="-694.8" font-family="Arial" font-size="14.00" fill="#666666">[]</text>
<polygon fill="none" stroke="#000000" points="77,-652 77,-682 211,-682 211,-652 77,-652"/>
<text text-anchor="start" x="84" y="-664.8" font-family="Arial" font-size="14.00" fill="#000000">ts </text>
<text text-anchor="start" x="98.7793" y="-664.8" font-family="Arial" font-size="14.00" fill="#666666">[]</text>
<polygon fill="none" stroke="#000000" points="77,-622 77,-652 211,-652 211,-622 77,-622"/>
<text text-anchor="start" x="84" y="-634.8" font-family="Arial" font-size="14.00" fill="#000000">filled_by_prev_ts </text>
<text text-anchor="start" x="192.9512" y="-634.8" font-family="Arial" font-size="14.00" fill="#666666">[]</text>
<polygon fill="none" stroke="#000000" points="77,-592 77,-622 211,-622 211,-592 77,-592"/>
<text text-anchor="start" x="84" y="-604.8" font-family="Arial" font-size="14.00" fill="#000000">content </text>
<text text-anchor="start" x="133.8135" y="-604.8" font-family="Arial" font-size="14.00" fill="#666666">[]</text>
<polygon fill="none" stroke="#000000" stroke-width="3" points="75.5,-590.5 75.5,-807.5 212.5,-807.5 212.5,-590.5 75.5,-590.5"/>
</g>
<!-- targets -->
<g id="node2" class="node">
<title>targets</title>
<polygon fill="#efefef" stroke="transparent" points="70,-433 70,-467 217,-467 217,-433 70,-433"/>
<polygon fill="none" stroke="#000000" points="70,-433 70,-467 217,-467 217,-433 70,-433"/>
<text text-anchor="start" x="92.4761" y="-446.6" font-family="Arial Bold" font-size="18.00" fill="#000000">targets</text>
<text text-anchor="start" x="152.4966" y="-446.6" font-family="Arial" font-size="14.00" fill="#000000"> </text>
<text text-anchor="start" x="156.3862" y="-446.6" font-family="Arial" font-size="14.00" fill="#666666">[table]</text>
<polygon fill="none" stroke="#000000" points="70,-403 70,-433 217,-433 217,-403 70,-403"/>
<text text-anchor="start" x="77" y="-415.8" font-family="Arial" font-size="14.00" fill="#000000">id </text>
<text text-anchor="start" x="91.7861" y="-415.8" font-family="Arial" font-size="14.00" fill="#666666">[INTEGER]</text>
<polygon fill="none" stroke="#000000" points="70,-373 70,-403 217,-403 217,-373 70,-373"/>
<text text-anchor="start" x="77" y="-385.8" font-family="Arial" font-size="14.00" fill="#000000">source </text>
<text text-anchor="start" x="122.9102" y="-385.8" font-family="Arial" font-size="14.00" fill="#666666">[TEXT]</text>
<polygon fill="none" stroke="#000000" points="70,-343 70,-373 217,-373 217,-343 70,-343"/>
<text text-anchor="start" x="77" y="-355.8" font-family="Arial" font-size="14.00" fill="#000000">description </text>
<text text-anchor="start" x="148.5928" y="-355.8" font-family="Arial" font-size="14.00" fill="#666666">[TEXT]</text>
<polygon fill="none" stroke="#000000" points="70,-313 70,-343 217,-343 217,-313 70,-313"/>
<text text-anchor="start" x="77" y="-325.8" font-family="Arial" font-size="14.00" fill="#000000">type </text>
<text text-anchor="start" x="107.3516" y="-325.8" font-family="Arial" font-size="14.00" fill="#666666">[TEXT]</text>
<polygon fill="none" stroke="#000000" points="70,-283 70,-313 217,-313 217,-283 70,-283"/>
<text text-anchor="start" x="77" y="-295.8" font-family="Arial" font-size="14.00" fill="#000000">regexp </text>
<text text-anchor="start" x="123.6963" y="-295.8" font-family="Arial" font-size="14.00" fill="#666666">[TEXT]</text>
<polygon fill="none" stroke="#000000" points="70,-253 70,-283 217,-283 217,-253 70,-253"/>
<text text-anchor="start" x="76.9829" y="-265.8" font-family="Arial" font-size="14.00" fill="#000000">multi_line </text>
<text text-anchor="start" x="140.0103" y="-265.8" font-family="Arial" font-size="14.00" fill="#666666">[INTEGER]</text>
<polygon fill="none" stroke="#000000" points="70,-223 70,-253 217,-253 217,-223 70,-223"/>
<text text-anchor="start" x="77" y="-235.8" font-family="Arial" font-size="14.00" fill="#000000">time_format </text>
<text text-anchor="start" x="154.7998" y="-235.8" font-family="Arial" font-size="14.00" fill="#666666">[TEXT]</text>
<polygon fill="none" stroke="#000000" points="70,-193 70,-223 217,-223 217,-193 70,-193"/>
<text text-anchor="start" x="77" y="-205.8" font-family="Arial" font-size="14.00" fill="#000000">time_zone </text>
<text text-anchor="start" x="145.4824" y="-205.8" font-family="Arial" font-size="14.00" fill="#666666">[TEXT]</text>
<polygon fill="none" stroke="#000000" points="70,-163 70,-193 217,-193 217,-163 70,-163"/>
<text text-anchor="start" x="77" y="-175.8" font-family="Arial" font-size="14.00" fill="#000000">scheme </text>
<text text-anchor="start" x="129.9102" y="-175.8" font-family="Arial" font-size="14.00" fill="#666666">[TEXT]</text>
<polygon fill="none" stroke="#000000" points="70,-133 70,-163 217,-163 217,-133 70,-133"/>
<text text-anchor="start" x="77" y="-145.8" font-family="Arial" font-size="14.00" fill="#000000">host </text>
<text text-anchor="start" x="107.3516" y="-145.8" font-family="Arial" font-size="14.00" fill="#666666">[TEXT]</text>
<polygon fill="none" stroke="#000000" points="70,-103 70,-133 217,-133 217,-103 70,-103"/>
<text text-anchor="start" x="77" y="-115.8" font-family="Arial" font-size="14.00" fill="#000000">user </text>
<text text-anchor="start" x="108.124" y="-115.8" font-family="Arial" font-size="14.00" fill="#666666">[TEXT]</text>
<polygon fill="none" stroke="#000000" points="70,-73 70,-103 217,-103 217,-73 70,-73"/>
<text text-anchor="start" x="77" y="-85.8" font-family="Arial" font-size="14.00" fill="#000000">port </text>
<text text-anchor="start" x="105.0137" y="-85.8" font-family="Arial" font-size="14.00" fill="#666666">[INTEGER]</text>
<polygon fill="none" stroke="#000000" points="70,-43 70,-73 217,-73 217,-43 70,-43"/>
<text text-anchor="start" x="77" y="-55.8" font-family="Arial" font-size="14.00" fill="#000000">path </text>
<text text-anchor="start" x="108.1377" y="-55.8" font-family="Arial" font-size="14.00" fill="#666666">[TEXT]</text>
</g>
<!-- logs&#45;&gt;targets -->
<g id="edge1" class="edge">
<title>logs:target_id&#45;&gt;targets:id</title>
<path fill="none" stroke="#000000" stroke-dasharray="5,2" d="M66.8121,-696.1444C12.7766,-686.4195 38.1257,-596.1353 77,-546 116.3679,-495.2282 177.6321,-560.7718 217,-510 242.0552,-477.6869 257.8889,-418 217,-418"/>
<polygon fill="#000000" stroke="#000000" points="67.0351,-696.1631 76.6234,-701.4842 72.0175,-696.5815 77,-697 77,-697 77,-697 72.0175,-696.5815 77.3766,-692.5158 67.0351,-696.1631 67.0351,-696.1631"/>
<text text-anchor="start" x="7.1787" y="-706.5" font-family="Arial" font-size="10.00" fill="#000000">logs &#45;&gt; targets</text>
</g>
</g>
</svg>
