<?xml version="1.0" encoding="UTF-8" standalone="no"?>
<!DOCTYPE svg PUBLIC "-//W3C//DTD SVG 1.1//EN"
 "http://www.w3.org/Graphics/SVG/1.1/DTD/svg11.dtd">
<!-- Generated by graphviz version 2.40.1 (20161225.0304)
 -->
<!-- Title: metas Pages: 1 -->
<svg width="208pt" height="224pt"
 viewBox="0.00 0.00 208.00 224.00" xmlns="http://www.w3.org/2000/svg" xmlns:xlink="http://www.w3.org/1999/xlink">
<g id="graph0" class="graph" transform="scale(1 1) rotate(0) translate(4 220)">
<title>metas</title>
<polygon fill="#ffffff" stroke="transparent" points="-4,4 -4,-220 204,-220 204,4 -4,4"/>
<!-- metas -->
<g id="node1" class="node">
<title>metas</title>
<polygon fill="#efefef" stroke="transparent" points="46,-136 46,-170 154,-170 154,-136 46,-136"/>
<polygon fill="none" stroke="#000000" points="46,-136 46,-170 154,-170 154,-136 46,-136"/>
<text text-anchor="start" x="52.9707" y="-149.6" font-family="Arial Bold" font-size="18.00" fill="#000000">metas</text>
<text text-anchor="start" x="105.002" y="-149.6" font-family="Arial" font-size="14.00" fill="#000000"> </text>
<text text-anchor="start" x="108.8916" y="-149.6" font-family="Arial" font-size="14.00" fill="#666666">[table]</text>
<polygon fill="none" stroke="#000000" points="46,-106 46,-136 154,-136 154,-106 46,-106"/>
<text text-anchor="start" x="53" y="-118.8" font-family="Arial" font-size="14.00" fill="#000000">id </text>
<text text-anchor="start" x="67.7861" y="-118.8" font-family="Arial" font-size="14.00" fill="#666666">[INTEGER]</text>
<polygon fill="none" stroke="#000000" points="46,-76 46,-106 154,-106 154,-76 46,-76"/>
<text text-anchor="start" x="53" y="-88.8" font-family="Arial" font-size="14.00" fill="#000000">key </text>
<text text-anchor="start" x="78.6758" y="-88.8" font-family="Arial" font-size="14.00" fill="#666666">[TEXT]</text>
<polygon fill="none" stroke="#000000" points="46,-46 46,-76 154,-76 154,-46 46,-46"/>
<text text-anchor="start" x="53" y="-58.8" font-family="Arial" font-size="14.00" fill="#000000">value </text>
<text text-anchor="start" x="90.3584" y="-58.8" font-family="Arial" font-size="14.00" fill="#666666">[TEXT]</text>
<polygon fill="none" stroke="#000000" stroke-width="3" points="44.5,-44.5 44.5,-171.5 155.5,-171.5 155.5,-44.5 44.5,-44.5"/>
</g>
</g>
</svg>
