<?xml version="1.0" encoding="UTF-8" standalone="no"?>
<!DOCTYPE svg PUBLIC "-//W3C//DTD SVG 1.1//EN"
 "http://www.w3.org/Graphics/SVG/1.1/DTD/svg11.dtd">
<!-- Generated by graphviz version 2.40.1 (20161225.0304)
 -->
<!-- Title: harvest.db Pages: 1 -->
<svg width="708pt" height="1094pt"
 viewBox="0.00 0.00 708.00 1094.00" xmlns="http://www.w3.org/2000/svg" xmlns:xlink="http://www.w3.org/1999/xlink">
<g id="graph0" class="graph" transform="scale(1 1) rotate(0) translate(4 1090)">
<title>harvest.db</title>
<polygon fill="#ffffff" stroke="transparent" points="-4,4 -4,-1090 704,-1090 704,4 -4,4"/>
<!-- targets -->
<g id="node1" class="node">
<title>targets</title>
<polygon fill="#efefef" stroke="transparent" points="50,-433 50,-467 197,-467 197,-433 50,-433"/>
<polygon fill="none" stroke="#000000" points="50,-433 50,-467 197,-467 197,-433 50,-433"/>
<text text-anchor="start" x="72.4761" y="-446.6" font-family="Arial Bold" font-size="18.00" fill="#000000">targets</text>
<text text-anchor="start" x="132.4966" y="-446.6" font-family="Arial" font-size="14.00" fill="#000000"> </text>
<text text-anchor="start" x="136.3862" y="-446.6" font-family="Arial" font-size="14.00" fill="#666666">[table]</text>
<polygon fill="none" stroke="#000000" points="50,-403 50,-433 197,-433 197,-403 50,-403"/>
<text text-anchor="start" x="57" y="-415.8" font-family="Arial" font-size="14.00" fill="#000000">id </text>
<text text-anchor="start" x="71.7861" y="-415.8" font-family="Arial" font-size="14.00" fill="#666666">[INTEGER]</text>
<polygon fill="none" stroke="#000000" points="50,-373 50,-403 197,-403 197,-373 50,-373"/>
<text text-anchor="start" x="57" y="-385.8" font-family="Arial" font-size="14.00" fill="#000000">source </text>
<text text-anchor="start" x="102.9102" y="-385.8" font-family="Arial" font-size="14.00" fill="#666666">[TEXT]</text>
<polygon fill="none" stroke="#000000" points="50,-343 50,-373 197,-373 197,-343 50,-343"/>
<text text-anchor="start" x="57" y="-355.8" font-family="Arial" font-size="14.00" fill="#000000">description </text>
<text text-anchor="start" x="128.5928" y="-355.8" font-family="Arial" font-size="14.00" fill="#666666">[TEXT]</text>
<polygon fill="none" stroke="#000000" points="50,-313 50,-343 197,-343 197,-313 50,-313"/>
<text text-anchor="start" x="57" y="-325.8" font-family="Arial" font-size="14.00" fill="#000000">type </text>
<text text-anchor="start" x="87.3516" y="-325.8" font-family="Arial" font-size="14.00" fill="#666666">[TEXT]</text>
<polygon fill="none" stroke="#000000" points="50,-283 50,-313 197,-313 197,-283 50,-283"/>
<text text-anchor="start" x="57" y="-295.8" font-family="Arial" font-size="14.00" fill="#000000">regexp </text>
<text text-anchor="start" x="103.6963" y="-295.8" font-family="Arial" font-size="14.00" fill="#666666">[TEXT]</text>
<polygon fill="none" stroke="#000000" points="50,-253 50,-283 197,-283 197,-253 50,-253"/>
<text text-anchor="start" x="56.9829" y="-265.8" font-family="Arial" font-size="14.00" fill="#000000">multi_line </text>
<text text-anchor="start" x="120.0103" y="-265.8" font-family="Arial" font-size="14.00" fill="#666666">[INTEGER]</text>
<polygon fill="none" stroke="#000000" points="50,-223 50,-253 197,-253 197,-223 50,-223"/>
<text text-anchor="start" x="57" y="-235.8" font-family="Arial" font-size="14.00" fill="#000000">time_format </text>
<text text-anchor="start" x="134.7998" y="-235.8" font-family="Arial" font-size="14.00" fill="#666666">[TEXT]</text>
<polygon fill="none" stroke="#000000" points="50,-193 50,-223 197,-223 197,-193 50,-193"/>
<text text-anchor="start" x="57" y="-205.8" font-family="Arial" font-size="14.00" fill="#000000">time_zone </text>
<text text-anchor="start" x="125.4824" y="-205.8" font-family="Arial" font-size="14.00" fill="#666666">[TEXT]</text>
<polygon fill="none" stroke="#000000" points="50,-163 50,-193 197,-193 197,-163 50,-163"/>
<text text-anchor="start" x="57" y="-175.8" font-family="Arial" font-size="14.00" fill="#000000">scheme </text>
<text text-anchor="start" x="109.9102" y="-175.8" font-family="Arial" font-size="14.00" fill="#666666">[TEXT]</text>
<polygon fill="none" stroke="#000000" points="50,-133 50,-163 197,-163 197,-133 50,-133"/>
<text text-anchor="start" x="57" y="-145.8" font-family="Arial" font-size="14.00" fill="#000000">host </text>
<text text-anchor="start" x="87.3516" y="-145.8" font-family="Arial" font-size="14.00" fill="#666666">[TEXT]</text>
<polygon fill="none" stroke="#000000" points="50,-103 50,-133 197,-133 197,-103 50,-103"/>
<text text-anchor="start" x="57" y="-115.8" font-family="Arial" font-size="14.00" fill="#000000">user </text>
<text text-anchor="start" x="88.124" y="-115.8" font-family="Arial" font-size="14.00" fill="#666666">[TEXT]</text>
<polygon fill="none" stroke="#000000" points="50,-73 50,-103 197,-103 197,-73 50,-73"/>
<text text-anchor="start" x="57" y="-85.8" font-family="Arial" font-size="14.00" fill="#000000">port </text>
<text text-anchor="start" x="85.0137" y="-85.8" font-family="Arial" font-size="14.00" fill="#666666">[INTEGER]</text>
<polygon fill="none" stroke="#000000" points="50,-43 50,-73 197,-73 197,-43 50,-43"/>
<text text-anchor="start" x="57" y="-55.8" font-family="Arial" font-size="14.00" fill="#000000">path </text>
<text text-anchor="start" x="88.1377" y="-55.8" font-family="Arial" font-size="14.00" fill="#666666">[TEXT]</text>
</g>
<!-- tags -->
<g id="node2" class="node">
<title>tags</title>
<polygon fill="#efefef" stroke="transparent" points="315,-268 315,-302 413,-302 413,-268 315,-268"/>
<polygon fill="none" stroke="#000000" points="315,-268 315,-302 413,-302 413,-268 315,-268"/>
<text text-anchor="start" x="324.481" y="-281.6" font-family="Arial Bold" font-size="18.00" fill="#000000">tags</text>
<text text-anchor="start" x="361.4917" y="-281.6" font-family="Arial" font-size="14.00" fill="#000000"> </text>
<text text-anchor="start" x="365.3813" y="-281.6" font-family="Arial" font-size="14.00" fill="#666666">[table]</text>
<polygon fill="none" stroke="#000000" points="315,-238 315,-268 413,-268 413,-238 315,-238"/>
<text text-anchor="start" x="321.6035" y="-250.8" font-family="Arial" font-size="14.00" fill="#000000">id </text>
<text text-anchor="start" x="336.3896" y="-250.8" font-family="Arial" font-size="14.00" fill="#666666">[INTEGER]</text>
<polygon fill="none" stroke="#000000" points="315,-208 315,-238 413,-238 413,-208 315,-208"/>
<text text-anchor="start" x="322" y="-220.8" font-family="Arial" font-size="14.00" fill="#000000">name </text>
<text text-anchor="start" x="360.9102" y="-220.8" font-family="Arial" font-size="14.00" fill="#666666">[TEXT]</text>
</g>
<!-- targets_tags -->
<g id="node3" class="node">
<title>targets_tags</title>
<polygon fill="#efefef" stroke="transparent" points="282,-844 282,-878 445,-878 445,-844 282,-844"/>
<polygon fill="none" stroke="#000000" points="282,-844 282,-878 445,-878 445,-844 282,-844"/>
<text text-anchor="start" x="288.9653" y="-857.6" font-family="Arial Bold" font-size="18.00" fill="#000000">targets_tags</text>
<text text-anchor="start" x="396.0073" y="-857.6" font-family="Arial" font-size="14.00" fill="#000000"> </text>
<text text-anchor="start" x="399.897" y="-857.6" font-family="Arial" font-size="14.00" fill="#666666">[table]</text>
<polygon fill="none" stroke="#000000" points="282,-814 282,-844 445,-844 445,-814 282,-814"/>
<text text-anchor="start" x="289" y="-826.8" font-family="Arial" font-size="14.00" fill="#000000">id </text>
<text text-anchor="start" x="303.7861" y="-826.8" font-family="Arial" font-size="14.00" fill="#666666">[INTEGER]</text>
<polygon fill="none" stroke="#000000" points="282,-784 282,-814 445,-814 445,-784 282,-784"/>
<text text-anchor="start" x="289" y="-796.8" font-family="Arial" font-size="14.00" fill="#000000">target_id </text>
<text text-anchor="start" x="347.3721" y="-796.8" font-family="Arial" font-size="14.00" fill="#666666">[INTEGER]</text>
<polygon fill="none" stroke="#000000" points="282,-754 282,-784 445,-784 445,-754 282,-754"/>
<text text-anchor="start" x="289" y="-766.8" font-family="Arial" font-size="14.00" fill="#000000">tag_id </text>
<text text-anchor="start" x="331.0342" y="-766.8" font-family="Arial" font-size="14.00" fill="#666666">[INTEGER]</text>
</g>
<!-- targets_tags&#45;&gt;targets -->
<g id="edge2" class="edge">
<title>targets_tags:target_id&#45;&gt;targets:id</title>
<path fill="none" stroke="#000000" stroke-dasharray="5,2" d="M271.7605,-796.9501C202.5335,-766.9613 280.0207,-418 197,-418"/>
<polygon fill="#000000" stroke="#000000" points="272.1946,-797.0369 281.1166,-803.4124 277.0973,-798.0185 282,-799 282,-799 282,-799 277.0973,-798.0185 282.8834,-794.5876 272.1946,-797.0369 272.1946,-797.0369"/>
<text text-anchor="start" x="231.834" y="-783.5" font-family="Arial" font-size="10.00" fill="#000000">targets_tags &#45;&gt; targets</text>
</g>
<!-- targets_tags&#45;&gt;tags -->
<g id="edge3" class="edge">
<title>targets_tags:tag_id&#45;&gt;tags:id</title>
<path fill="none" stroke="#000000" stroke-dasharray="5,2" d="M363.6228,-743.8439C355.1073,-620.4067 206.3035,-253 315,-253"/>
<polygon fill="#000000" stroke="#000000" points="363.6287,-744.0069 359.5031,-754.1671 363.8144,-749.0034 364,-754 364,-754 364,-754 363.8144,-749.0034 368.4969,-753.8329 363.6287,-744.0069 363.6287,-744.0069"/>
<text text-anchor="start" x="294.1689" y="-738.5" font-family="Arial" font-size="10.00" fill="#000000">targets_tags &#45;&gt; tags</text>
</g>
<!-- logs -->
<g id="node4" class="node">
<title>logs</title>
<polygon fill="#efefef" stroke="transparent" points="43,-1009 43,-1043 177,-1043 177,-1009 43,-1009"/>
<polygon fill="none" stroke="#000000" points="43,-1009 43,-1043 177,-1043 177,-1009 43,-1009"/>
<text text-anchor="start" x="49.8682" y="-1022.6" font-family="Arial Bold" font-size="18.00" fill="#000000">logs</text>
<text text-anchor="start" x="86.8701" y="-1022.6" font-family="Arial" font-size="14.00" fill="#000000"> </text>
<text text-anchor="start" x="90.7598" y="-1022.6" font-family="Arial" font-size="14.00" fill="#666666">[virtual table]</text>
<polygon fill="none" stroke="#000000" points="43,-979 43,-1009 177,-1009 177,-979 43,-979"/>
<text text-anchor="start" x="50" y="-991.8" font-family="Arial" font-size="14.00" fill="#000000">host </text>
<text text-anchor="start" x="80.3516" y="-991.8" font-family="Arial" font-size="14.00" fill="#666666">[]</text>
<polygon fill="none" stroke="#000000" points="43,-949 43,-979 177,-979 177,-949 43,-949"/>
<text text-anchor="start" x="50" y="-961.8" font-family="Arial" font-size="14.00" fill="#000000">path </text>
<text text-anchor="start" x="81.1377" y="-961.8" font-family="Arial" font-size="14.00" fill="#666666">[]</text>
<polygon fill="none" stroke="#000000" points="43,-919 43,-949 177,-949 177,-919 43,-919"/>
<text text-anchor="start" x="50" y="-931.8" font-family="Arial" font-size="14.00" fill="#000000">target_id </text>
<text text-anchor="start" x="108.3721" y="-931.8" font-family="Arial" font-size="14.00" fill="#666666">[]</text>
<polygon fill="none" stroke="#000000" points="43,-889 43,-919 177,-919 177,-889 43,-889"/>
<text text-anchor="start" x="50" y="-901.8" font-family="Arial" font-size="14.00" fill="#000000">ts </text>
<text text-anchor="start" x="64.7793" y="-901.8" font-family="Arial" font-size="14.00" fill="#666666">[]</text>
<polygon fill="none" stroke="#000000" points="43,-859 43,-889 177,-889 177,-859 43,-859"/>
<text text-anchor="start" x="50" y="-871.8" font-family="Arial" font-size="14.00" fill="#000000">ts_unixnano </text>
<text text-anchor="start" x="129.3926" y="-871.8" font-family="Arial" font-size="14.00" fill="#666666">[]</text>
<polygon fill="none" stroke="#000000" points="43,-829 43,-859 177,-859 177,-829 43,-829"/>
<text text-anchor="start" x="50" y="-841.8" font-family="Arial" font-size="14.00" fill="#000000">ts_year </text>
<text text-anchor="start" x="99.7998" y="-841.8" font-family="Arial" font-size="14.00" fill="#666666">[]</text>
<polygon fill="none" stroke="#000000" points="43,-799 43,-829 177,-829 177,-799 43,-799"/>
<text text-anchor="start" x="50" y="-811.8" font-family="Arial" font-size="14.00" fill="#000000">ts_month </text>
<text text-anchor="start" x="111.4756" y="-811.8" font-family="Arial" font-size="14.00" fill="#666666">[]</text>
<polygon fill="none" stroke="#000000" points="43,-769 43,-799 177,-799 177,-769 43,-769"/>
<text text-anchor="start" x="50" y="-781.8" font-family="Arial" font-size="14.00" fill="#000000">ts_day </text>
<text text-anchor="start" x="95.1377" y="-781.8" font-family="Arial" font-size="14.00" fill="#666666">[]</text>
<polygon fill="none" stroke="#000000" points="43,-739 43,-769 177,-769 177,-739 43,-739"/>
<text text-anchor="start" x="50" y="-751.8" font-family="Arial" font-size="14.00" fill="#000000">ts_hour </text>
<text text-anchor="start" x="100.5859" y="-751.8" font-family="Arial" font-size="14.00" fill="#666666">[]</text>
<polygon fill="none" stroke="#000000" points="43,-709 43,-739 177,-739 177,-709 43,-709"/>
<text text-anchor="start" x="50" y="-721.8" font-family="Arial" font-size="14.00" fill="#000000">ts_minute </text>
<text text-anchor="start" x="114.5859" y="-721.8" font-family="Arial" font-size="14.00" fill="#666666">[]</text>
<polygon fill="none" stroke="#000000" points="43,-679 43,-709 177,-709 177,-679 43,-679"/>
<text text-anchor="start" x="50" y="-691.8" font-family="Arial" font-size="14.00" fill="#000000">ts_second </text>
<text text-anchor="start" x="117.71" y="-691.8" font-family="Arial" font-size="14.00" fill="#666666">[]</text>
<polygon fill="none" stroke="#000000" points="43,-649 43,-679 177,-679 177,-649 43,-649"/>
<text text-anchor="start" x="50" y="-661.8" font-family="Arial" font-size="14.00" fill="#000000">ts_time_zone </text>
<text text-anchor="start" x="137.1582" y="-661.8" font-family="Arial" font-size="14.00" fill="#666666">[]</text>
<polygon fill="none" stroke="#000000" points="43,-619 43,-649 177,-649 177,-619 43,-619"/>
<text text-anchor="start" x="50" y="-631.8" font-family="Arial" font-size="14.00" fill="#000000">filled_by_prev_ts </text>
<text text-anchor="start" x="158.9512" y="-631.8" font-family="Arial" font-size="14.00" fill="#666666">[]</text>
<polygon fill="none" stroke="#000000" points="43,-589 43,-619 177,-619 177,-589 43,-589"/>
<text text-anchor="start" x="50" y="-601.8" font-family="Arial" font-size="14.00" fill="#000000">content </text>
<text text-anchor="start" x="99.8135" y="-601.8" font-family="Arial" font-size="14.00" fill="#666666">[]</text>
</g>
<!-- logs&#45;&gt;targets -->
<g id="edge1" class="edge">
<title>logs:target_id&#45;&gt;targets:id</title>
<path fill="none" stroke="#000000" stroke-dasharray="5,2" d="M185.6247,-928.4316C217.5218,-883.2695 201.0676,-577.8382 177,-546 141.6215,-499.199 85.3785,-556.801 50,-510 25.3429,-477.3821 9.1111,-418 50,-418"/>
<polygon fill="#000000" stroke="#000000" points="185.4012,-928.5759 174.5591,-930.2195 181.2006,-931.2879 177,-934 177,-934 177,-934 181.2006,-931.2879 179.4409,-937.7805 185.4012,-928.5759 185.4012,-928.5759"/>
<text text-anchor="start" x="184.1787" y="-943.5" font-family="Arial" font-size="10.00" fill="#000000">logs &#45;&gt; targets</text>
</g>
<!-- metas -->
<g id="node5" class="node">
<title>metas</title>
<polygon fill="#efefef" stroke="transparent" points="549,-844 549,-878 657,-878 657,-844 549,-844"/>
<polygon fill="none" stroke="#000000" points="549,-844 549,-878 657,-878 657,-844 549,-844"/>
<text text-anchor="start" x="555.9707" y="-857.6" font-family="Arial Bold" font-size="18.00" fill="#000000">metas</text>
<text text-anchor="start" x="608.002" y="-857.6" font-family="Arial" font-size="14.00" fill="#000000"> </text>
<text text-anchor="start" x="611.8916" y="-857.6" font-family="Arial" font-size="14.00" fill="#666666">[table]</text>
<polygon fill="none" stroke="#000000" points="549,-814 549,-844 657,-844 657,-814 549,-814"/>
<text text-anchor="start" x="556" y="-826.8" font-family="Arial" font-size="14.00" fill="#000000">id </text>
<text text-anchor="start" x="570.7861" y="-826.8" font-family="Arial" font-size="14.00" fill="#666666">[INTEGER]</text>
<polygon fill="none" stroke="#000000" points="549,-784 549,-814 657,-814 657,-784 549,-784"/>
<text text-anchor="start" x="556" y="-796.8" font-family="Arial" font-size="14.00" fill="#000000">key </text>
<text text-anchor="start" x="581.6758" y="-796.8" font-family="Arial" font-size="14.00" fill="#666666">[TEXT]</text>
<polygon fill="none" stroke="#000000" points="549,-754 549,-784 657,-784 657,-754 549,-754"/>
<text text-anchor="start" x="556" y="-766.8" font-family="Arial" font-size="14.00" fill="#000000">value </text>
<text text-anchor="start" x="593.3584" y="-766.8" font-family="Arial" font-size="14.00" fill="#666666">[TEXT]</text>
</g>
</g>
</svg>
