<?xml version="1.0" encoding="UTF-8" standalone="no"?>
<!DOCTYPE svg PUBLIC "-//W3C//DTD SVG 1.1//EN"
 "http://www.w3.org/Graphics/SVG/1.1/DTD/svg11.dtd">
<!-- Generated by graphviz version 2.40.1 (20161225.0304)
 -->
<!-- Title: harvest.db Pages: 1 -->
<svg width="950pt" height="518pt"
 viewBox="0.00 0.00 949.50 518.00" xmlns="http://www.w3.org/2000/svg" xmlns:xlink="http://www.w3.org/1999/xlink">
<g id="graph0" class="graph" transform="scale(1 1) rotate(0) translate(4 514)">
<title>harvest.db</title>
<polygon fill="#ffffff" stroke="transparent" points="-4,4 -4,-514 945.5,-514 945.5,4 -4,4"/>
<!-- targets -->
<g id="node1" class="node">
<title>targets</title>
<polygon fill="#efefef" stroke="transparent" points="43.5,-433 43.5,-467 190.5,-467 190.5,-433 43.5,-433"/>
<polygon fill="none" stroke="#000000" points="43.5,-433 43.5,-467 190.5,-467 190.5,-433 43.5,-433"/>
<text text-anchor="start" x="65.9761" y="-446.6" font-family="Arial Bold" font-size="18.00" fill="#000000">targets</text>
<text text-anchor="start" x="125.9966" y="-446.6" font-family="Arial" font-size="14.00" fill="#000000"> </text>
<text text-anchor="start" x="129.8862" y="-446.6" font-family="Arial" font-size="14.00" fill="#666666">[table]</text>
<polygon fill="none" stroke="#000000" points="43.5,-403 43.5,-433 190.5,-433 190.5,-403 43.5,-403"/>
<text text-anchor="start" x="50.5" y="-415.8" font-family="Arial" font-size="14.00" fill="#000000">id </text>
<text text-anchor="start" x="65.2861" y="-415.8" font-family="Arial" font-size="14.00" fill="#666666">[INTEGER]</text>
<polygon fill="none" stroke="#000000" points="43.5,-373 43.5,-403 190.5,-403 190.5,-373 43.5,-373"/>
<text text-anchor="start" x="50.5" y="-385.8" font-family="Arial" font-size="14.00" fill="#000000">source </text>
<text text-anchor="start" x="96.4102" y="-385.8" font-family="Arial" font-size="14.00" fill="#666666">[TEXT]</text>
<polygon fill="none" stroke="#000000" points="43.5,-343 43.5,-373 190.5,-373 190.5,-343 43.5,-343"/>
<text text-anchor="start" x="50.5" y="-355.8" font-family="Arial" font-size="14.00" fill="#000000">description </text>
<text text-anchor="start" x="122.0928" y="-355.8" font-family="Arial" font-size="14.00" fill="#666666">[TEXT]</text>
<polygon fill="none" stroke="#000000" points="43.5,-313 43.5,-343 190.5,-343 190.5,-313 43.5,-313"/>
<text text-anchor="start" x="50.5" y="-325.8" font-family="Arial" font-size="14.00" fill="#000000">type </text>
<text text-anchor="start" x="80.8516" y="-325.8" font-family="Arial" font-size="14.00" fill="#666666">[TEXT]</text>
<polygon fill="none" stroke="#000000" points="43.5,-283 43.5,-313 190.5,-313 190.5,-283 43.5,-283"/>
<text text-anchor="start" x="50.5" y="-295.8" font-family="Arial" font-size="14.00" fill="#000000">regexp </text>
<text text-anchor="start" x="97.1963" y="-295.8" font-family="Arial" font-size="14.00" fill="#666666">[TEXT]</text>
<polygon fill="none" stroke="#000000" points="43.5,-253 43.5,-283 190.5,-283 190.5,-253 43.5,-253"/>
<text text-anchor="start" x="50.4829" y="-265.8" font-family="Arial" font-size="14.00" fill="#000000">multi_line </text>
<text text-anchor="start" x="113.5103" y="-265.8" font-family="Arial" font-size="14.00" fill="#666666">[INTEGER]</text>
<polygon fill="none" stroke="#000000" points="43.5,-223 43.5,-253 190.5,-253 190.5,-223 43.5,-223"/>
<text text-anchor="start" x="50.5" y="-235.8" font-family="Arial" font-size="14.00" fill="#000000">time_format </text>
<text text-anchor="start" x="128.2998" y="-235.8" font-family="Arial" font-size="14.00" fill="#666666">[TEXT]</text>
<polygon fill="none" stroke="#000000" points="43.5,-193 43.5,-223 190.5,-223 190.5,-193 43.5,-193"/>
<text text-anchor="start" x="50.5" y="-205.8" font-family="Arial" font-size="14.00" fill="#000000">time_zone </text>
<text text-anchor="start" x="118.9824" y="-205.8" font-family="Arial" font-size="14.00" fill="#666666">[TEXT]</text>
<polygon fill="none" stroke="#000000" points="43.5,-163 43.5,-193 190.5,-193 190.5,-163 43.5,-163"/>
<text text-anchor="start" x="50.5" y="-175.8" font-family="Arial" font-size="14.00" fill="#000000">scheme </text>
<text text-anchor="start" x="103.4102" y="-175.8" font-family="Arial" font-size="14.00" fill="#666666">[TEXT]</text>
<polygon fill="none" stroke="#000000" points="43.5,-133 43.5,-163 190.5,-163 190.5,-133 43.5,-133"/>
<text text-anchor="start" x="50.5" y="-145.8" font-family="Arial" font-size="14.00" fill="#000000">host </text>
<text text-anchor="start" x="80.8516" y="-145.8" font-family="Arial" font-size="14.00" fill="#666666">[TEXT]</text>
<polygon fill="none" stroke="#000000" points="43.5,-103 43.5,-133 190.5,-133 190.5,-103 43.5,-103"/>
<text text-anchor="start" x="50.5" y="-115.8" font-family="Arial" font-size="14.00" fill="#000000">user </text>
<text text-anchor="start" x="81.624" y="-115.8" font-family="Arial" font-size="14.00" fill="#666666">[TEXT]</text>
<polygon fill="none" stroke="#000000" points="43.5,-73 43.5,-103 190.5,-103 190.5,-73 43.5,-73"/>
<text text-anchor="start" x="50.5" y="-85.8" font-family="Arial" font-size="14.00" fill="#000000">port </text>
<text text-anchor="start" x="78.5137" y="-85.8" font-family="Arial" font-size="14.00" fill="#666666">[INTEGER]</text>
<polygon fill="none" stroke="#000000" points="43.5,-43 43.5,-73 190.5,-73 190.5,-43 43.5,-43"/>
<text text-anchor="start" x="50.5" y="-55.8" font-family="Arial" font-size="14.00" fill="#000000">path </text>
<text text-anchor="start" x="81.6377" y="-55.8" font-family="Arial" font-size="14.00" fill="#666666">[TEXT]</text>
</g>
<!-- tags -->
<g id="node2" class="node">
<title>tags</title>
<polygon fill="#efefef" stroke="transparent" points="294.5,-268 294.5,-302 392.5,-302 392.5,-268 294.5,-268"/>
<polygon fill="none" stroke="#000000" points="294.5,-268 294.5,-302 392.5,-302 392.5,-268 294.5,-268"/>
<text text-anchor="start" x="303.981" y="-281.6" font-family="Arial Bold" font-size="18.00" fill="#000000">tags</text>
<text text-anchor="start" x="340.9917" y="-281.6" font-family="Arial" font-size="14.00" fill="#000000"> </text>
<text text-anchor="start" x="344.8813" y="-281.6" font-family="Arial" font-size="14.00" fill="#666666">[table]</text>
<polygon fill="none" stroke="#000000" points="294.5,-238 294.5,-268 392.5,-268 392.5,-238 294.5,-238"/>
<text text-anchor="start" x="301.1035" y="-250.8" font-family="Arial" font-size="14.00" fill="#000000">id </text>
<text text-anchor="start" x="315.8896" y="-250.8" font-family="Arial" font-size="14.00" fill="#666666">[INTEGER]</text>
<polygon fill="none" stroke="#000000" points="294.5,-208 294.5,-238 392.5,-238 392.5,-208 294.5,-208"/>
<text text-anchor="start" x="301.5" y="-220.8" font-family="Arial" font-size="14.00" fill="#000000">name </text>
<text text-anchor="start" x="340.4102" y="-220.8" font-family="Arial" font-size="14.00" fill="#666666">[TEXT]</text>
</g>
<!-- targets_tags -->
<g id="node3" class="node">
<title>targets_tags</title>
<polygon fill="#efefef" stroke="transparent" points="497.5,-283 497.5,-317 660.5,-317 660.5,-283 497.5,-283"/>
<polygon fill="none" stroke="#000000" points="497.5,-283 497.5,-317 660.5,-317 660.5,-283 497.5,-283"/>
<text text-anchor="start" x="504.4653" y="-296.6" font-family="Arial Bold" font-size="18.00" fill="#000000">targets_tags</text>
<text text-anchor="start" x="611.5073" y="-296.6" font-family="Arial" font-size="14.00" fill="#000000"> </text>
<text text-anchor="start" x="615.397" y="-296.6" font-family="Arial" font-size="14.00" fill="#666666">[table]</text>
<polygon fill="none" stroke="#000000" points="497.5,-253 497.5,-283 660.5,-283 660.5,-253 497.5,-253"/>
<text text-anchor="start" x="504.5" y="-265.8" font-family="Arial" font-size="14.00" fill="#000000">id </text>
<text text-anchor="start" x="519.2861" y="-265.8" font-family="Arial" font-size="14.00" fill="#666666">[INTEGER]</text>
<polygon fill="none" stroke="#000000" points="497.5,-223 497.5,-253 660.5,-253 660.5,-223 497.5,-223"/>
<text text-anchor="start" x="504.5" y="-235.8" font-family="Arial" font-size="14.00" fill="#000000">target_id </text>
<text text-anchor="start" x="562.8721" y="-235.8" font-family="Arial" font-size="14.00" fill="#666666">[INTEGER]</text>
<polygon fill="none" stroke="#000000" points="497.5,-193 497.5,-223 660.5,-223 660.5,-193 497.5,-193"/>
<text text-anchor="start" x="504.5" y="-205.8" font-family="Arial" font-size="14.00" fill="#000000">tag_id </text>
<text text-anchor="start" x="546.5342" y="-205.8" font-family="Arial" font-size="14.00" fill="#666666">[INTEGER]</text>
</g>
<!-- logs -->
<g id="node4" class="node">
<title>logs</title>
<polygon fill="#efefef" stroke="transparent" points="764.5,-328 764.5,-362 898.5,-362 898.5,-328 764.5,-328"/>
<polygon fill="none" stroke="#000000" points="764.5,-328 764.5,-362 898.5,-362 898.5,-328 764.5,-328"/>
<text text-anchor="start" x="771.3682" y="-341.6" font-family="Arial Bold" font-size="18.00" fill="#000000">logs</text>
<text text-anchor="start" x="808.3701" y="-341.6" font-family="Arial" font-size="14.00" fill="#000000"> </text>
<text text-anchor="start" x="812.2598" y="-341.6" font-family="Arial" font-size="14.00" fill="#666666">[virtual table]</text>
<polygon fill="none" stroke="#000000" points="764.5,-298 764.5,-328 898.5,-328 898.5,-298 764.5,-298"/>
<text text-anchor="start" x="771.5" y="-310.8" font-family="Arial" font-size="14.00" fill="#000000">host </text>
<text text-anchor="start" x="801.8516" y="-310.8" font-family="Arial" font-size="14.00" fill="#666666">[]</text>
<polygon fill="none" stroke="#000000" points="764.5,-268 764.5,-298 898.5,-298 898.5,-268 764.5,-268"/>
<text text-anchor="start" x="771.5" y="-280.8" font-family="Arial" font-size="14.00" fill="#000000">path </text>
<text text-anchor="start" x="802.6377" y="-280.8" font-family="Arial" font-size="14.00" fill="#666666">[]</text>
<polygon fill="none" stroke="#000000" points="764.5,-238 764.5,-268 898.5,-268 898.5,-238 764.5,-238"/>
<text text-anchor="start" x="771.5" y="-250.8" font-family="Arial" font-size="14.00" fill="#000000">target_id </text>
<text text-anchor="start" x="829.8721" y="-250.8" font-family="Arial" font-size="14.00" fill="#666666">[]</text>
<polygon fill="none" stroke="#000000" points="764.5,-208 764.5,-238 898.5,-238 898.5,-208 764.5,-208"/>
<text text-anchor="start" x="771.5" y="-220.8" font-family="Arial" font-size="14.00" fill="#000000">ts </text>
<text text-anchor="start" x="786.2793" y="-220.8" font-family="Arial" font-size="14.00" fill="#666666">[]</text>
<polygon fill="none" stroke="#000000" points="764.5,-178 764.5,-208 898.5,-208 898.5,-178 764.5,-178"/>
<text text-anchor="start" x="771.5" y="-190.8" font-family="Arial" font-size="14.00" fill="#000000">filled_by_prev_ts </text>
<text text-anchor="start" x="880.4512" y="-190.8" font-family="Arial" font-size="14.00" fill="#666666">[]</text>
<polygon fill="none" stroke="#000000" points="764.5,-148 764.5,-178 898.5,-178 898.5,-148 764.5,-148"/>
<text text-anchor="start" x="771.5" y="-160.8" font-family="Arial" font-size="14.00" fill="#000000">content </text>
<text text-anchor="start" x="821.3135" y="-160.8" font-family="Arial" font-size="14.00" fill="#666666">[]</text>
</g>
</g>
</svg>
