<?xml version="1.0" encoding="UTF-8" standalone="no"?>
<!DOCTYPE svg PUBLIC "-//W3C//DTD SVG 1.1//EN"
 "http://www.w3.org/Graphics/SVG/1.1/DTD/svg11.dtd">
<!-- Generated by graphviz version 2.40.1 (20161225.0304)
 -->
<!-- Title: tags Pages: 1 -->
<svg width="257pt" height="440pt"
 viewBox="0.00 0.00 257.00 440.00" xmlns="http://www.w3.org/2000/svg" xmlns:xlink="http://www.w3.org/1999/xlink">
<g id="graph0" class="graph" transform="scale(1 1) rotate(0) translate(4 436)">
<title>tags</title>
<polygon fill="#ffffff" stroke="transparent" points="-4,4 -4,-436 253,-436 253,4 -4,4"/>
<!-- tags -->
<g id="node1" class="node">
<title>tags</title>
<polygon fill="#efefef" stroke="transparent" points="76.5,-106 76.5,-140 174.5,-140 174.5,-106 76.5,-106"/>
<polygon fill="none" stroke="#000000" points="76.5,-106 76.5,-140 174.5,-140 174.5,-106 76.5,-106"/>
<text text-anchor="start" x="85.981" y="-119.6" font-family="Arial Bold" font-size="18.00" fill="#000000">tags</text>
<text text-anchor="start" x="122.9917" y="-119.6" font-family="Arial" font-size="14.00" fill="#000000"> </text>
<text text-anchor="start" x="126.8813" y="-119.6" font-family="Arial" font-size="14.00" fill="#666666">[table]</text>
<polygon fill="none" stroke="#000000" points="76.5,-76 76.5,-106 174.5,-106 174.5,-76 76.5,-76"/>
<text text-anchor="start" x="83.1035" y="-88.8" font-family="Arial" font-size="14.00" fill="#000000">id </text>
<text text-anchor="start" x="97.8896" y="-88.8" font-family="Arial" font-size="14.00" fill="#666666">[INTEGER]</text>
<polygon fill="none" stroke="#000000" points="76.5,-46 76.5,-76 174.5,-76 174.5,-46 76.5,-46"/>
<text text-anchor="start" x="83.5" y="-58.8" font-family="Arial" font-size="14.00" fill="#000000">name </text>
<text text-anchor="start" x="122.4102" y="-58.8" font-family="Arial" font-size="14.00" fill="#666666">[TEXT]</text>
<polygon fill="none" stroke="#000000" stroke-width="3" points="75,-44.5 75,-141.5 176,-141.5 176,-44.5 75,-44.5"/>
</g>
<!-- targets_tags -->
<g id="node2" class="node">
<title>targets_tags</title>
<polygon fill="#efefef" stroke="transparent" points="43.5,-355 43.5,-389 206.5,-389 206.5,-355 43.5,-355"/>
<polygon fill="none" stroke="#000000" points="43.5,-355 43.5,-389 206.5,-389 206.5,-355 43.5,-355"/>
<text text-anchor="start" x="50.4653" y="-368.6" font-family="Arial Bold" font-size="18.00" fill="#000000">targets_tags</text>
<text text-anchor="start" x="157.5073" y="-368.6" font-family="Arial" font-size="14.00" fill="#000000"> </text>
<text text-anchor="start" x="161.397" y="-368.6" font-family="Arial" font-size="14.00" fill="#666666">[table]</text>
<polygon fill="none" stroke="#000000" points="43.5,-325 43.5,-355 206.5,-355 206.5,-325 43.5,-325"/>
<text text-anchor="start" x="50.5" y="-337.8" font-family="Arial" font-size="14.00" fill="#000000">id </text>
<text text-anchor="start" x="65.2861" y="-337.8" font-family="Arial" font-size="14.00" fill="#666666">[INTEGER]</text>
<polygon fill="none" stroke="#000000" points="43.5,-295 43.5,-325 206.5,-325 206.5,-295 43.5,-295"/>
<text text-anchor="start" x="50.5" y="-307.8" font-family="Arial" font-size="14.00" fill="#000000">target_id </text>
<text text-anchor="start" x="108.8721" y="-307.8" font-family="Arial" font-size="14.00" fill="#666666">[INTEGER]</text>
<polygon fill="none" stroke="#000000" points="43.5,-265 43.5,-295 206.5,-295 206.5,-265 43.5,-265"/>
<text text-anchor="start" x="50.5" y="-277.8" font-family="Arial" font-size="14.00" fill="#000000">tag_id </text>
<text text-anchor="start" x="92.5342" y="-277.8" font-family="Arial" font-size="14.00" fill="#666666">[INTEGER]</text>
</g>
<!-- targets_tags&#45;&gt;tags -->
<g id="edge1" class="edge">
<title>targets_tags:tag_id&#45;&gt;tags:id</title>
<path fill="none" stroke="#000000" stroke-dasharray="5,2" d="M124.634,-254.8523C118.9425,-223.7147 86.8051,-222.165 76.5,-186 64.9295,-145.3941 34.2778,-91 76.5,-91"/>
<polygon fill="#000000" stroke="#000000" points="124.6496,-255.0362 121.0163,-265.3827 125.0748,-260.0181 125.5,-265 125.5,-265 125.5,-265 125.0748,-260.0181 129.9837,-264.6173 124.6496,-255.0362 124.6496,-255.0362"/>
<text text-anchor="start" x="106.6689" y="-249.5" font-family="Arial" font-size="10.00" fill="#000000">targets_tags &#45;&gt; tags</text>
</g>
</g>
</svg>
