<?xml version="1.0" encoding="UTF-8" standalone="no"?>
<!DOCTYPE svg PUBLIC "-//W3C//DTD SVG 1.1//EN"
 "http://www.w3.org/Graphics/SVG/1.1/DTD/svg11.dtd">
<!-- Generated by graphviz version 2.40.1 (20161225.0304)
 -->
<!-- Title: tags Pages: 1 -->
<svg width="198pt" height="194pt"
 viewBox="0.00 0.00 198.00 194.00" xmlns="http://www.w3.org/2000/svg" xmlns:xlink="http://www.w3.org/1999/xlink">
<g id="graph0" class="graph" transform="scale(1 1) rotate(0) translate(4 190)">
<title>tags</title>
<polygon fill="#ffffff" stroke="transparent" points="-4,4 -4,-190 194,-190 194,4 -4,4"/>
<!-- tags -->
<g id="node1" class="node">
<title>tags</title>
<polygon fill="#efefef" stroke="transparent" points="46,-106 46,-140 144,-140 144,-106 46,-106"/>
<polygon fill="none" stroke="#000000" points="46,-106 46,-140 144,-140 144,-106 46,-106"/>
<text text-anchor="start" x="55.481" y="-119.6" font-family="Arial Bold" font-size="18.00" fill="#000000">tags</text>
<text text-anchor="start" x="92.4917" y="-119.6" font-family="Arial" font-size="14.00" fill="#000000"> </text>
<text text-anchor="start" x="96.3813" y="-119.6" font-family="Arial" font-size="14.00" fill="#666666">[table]</text>
<polygon fill="none" stroke="#000000" points="46,-76 46,-106 144,-106 144,-76 46,-76"/>
<text text-anchor="start" x="52.6035" y="-88.8" font-family="Arial" font-size="14.00" fill="#000000">id </text>
<text text-anchor="start" x="67.3896" y="-88.8" font-family="Arial" font-size="14.00" fill="#666666">[INTEGER]</text>
<polygon fill="none" stroke="#000000" points="46,-46 46,-76 144,-76 144,-46 46,-46"/>
<text text-anchor="start" x="53" y="-58.8" font-family="Arial" font-size="14.00" fill="#000000">name </text>
<text text-anchor="start" x="91.9102" y="-58.8" font-family="Arial" font-size="14.00" fill="#666666">[TEXT]</text>
<polygon fill="none" stroke="#000000" stroke-width="3" points="44.5,-44.5 44.5,-141.5 145.5,-141.5 145.5,-44.5 44.5,-44.5"/>
</g>
</g>
</svg>
