<?xml version="1.0" encoding="UTF-8" standalone="no"?>
<!DOCTYPE svg PUBLIC "-//W3C//DTD SVG 1.1//EN"
 "http://www.w3.org/Graphics/SVG/1.1/DTD/svg11.dtd">
<!-- Generated by graphviz version 2.40.1 (20161225.0304)
 -->
<!-- Title: targets Pages: 1 -->
<svg width="247pt" height="524pt"
 viewBox="0.00 0.00 247.00 524.00" xmlns="http://www.w3.org/2000/svg" xmlns:xlink="http://www.w3.org/1999/xlink">
<g id="graph0" class="graph" transform="scale(1 1) rotate(0) translate(4 520)">
<title>targets</title>
<polygon fill="#ffffff" stroke="transparent" points="-4,4 -4,-520 243,-520 243,4 -4,4"/>
<!-- targets -->
<g id="node1" class="node">
<title>targets</title>
<polygon fill="#efefef" stroke="transparent" points="46.5,-436 46.5,-470 193.5,-470 193.5,-436 46.5,-436"/>
<polygon fill="none" stroke="#000000" points="46.5,-436 46.5,-470 193.5,-470 193.5,-436 46.5,-436"/>
<text text-anchor="start" x="68.9761" y="-449.6" font-family="Arial Bold" font-size="18.00" fill="#000000">targets</text>
<text text-anchor="start" x="128.9966" y="-449.6" font-family="Arial" font-size="14.00" fill="#000000"> </text>
<text text-anchor="start" x="132.8862" y="-449.6" font-family="Arial" font-size="14.00" fill="#666666">[table]</text>
<polygon fill="none" stroke="#000000" points="46.5,-406 46.5,-436 193.5,-436 193.5,-406 46.5,-406"/>
<text text-anchor="start" x="53.5" y="-418.8" font-family="Arial" font-size="14.00" fill="#000000">id </text>
<text text-anchor="start" x="68.2861" y="-418.8" font-family="Arial" font-size="14.00" fill="#666666">[INTEGER]</text>
<polygon fill="none" stroke="#000000" points="46.5,-376 46.5,-406 193.5,-406 193.5,-376 46.5,-376"/>
<text text-anchor="start" x="53.5" y="-388.8" font-family="Arial" font-size="14.00" fill="#000000">source </text>
<text text-anchor="start" x="99.4102" y="-388.8" font-family="Arial" font-size="14.00" fill="#666666">[TEXT]</text>
<polygon fill="none" stroke="#000000" points="46.5,-346 46.5,-376 193.5,-376 193.5,-346 46.5,-346"/>
<text text-anchor="start" x="53.5" y="-358.8" font-family="Arial" font-size="14.00" fill="#000000">description </text>
<text text-anchor="start" x="125.0928" y="-358.8" font-family="Arial" font-size="14.00" fill="#666666">[TEXT]</text>
<polygon fill="none" stroke="#000000" points="46.5,-316 46.5,-346 193.5,-346 193.5,-316 46.5,-316"/>
<text text-anchor="start" x="53.5" y="-328.8" font-family="Arial" font-size="14.00" fill="#000000">type </text>
<text text-anchor="start" x="83.8516" y="-328.8" font-family="Arial" font-size="14.00" fill="#666666">[TEXT]</text>
<polygon fill="none" stroke="#000000" points="46.5,-286 46.5,-316 193.5,-316 193.5,-286 46.5,-286"/>
<text text-anchor="start" x="53.5" y="-298.8" font-family="Arial" font-size="14.00" fill="#000000">regexp </text>
<text text-anchor="start" x="100.1963" y="-298.8" font-family="Arial" font-size="14.00" fill="#666666">[TEXT]</text>
<polygon fill="none" stroke="#000000" points="46.5,-256 46.5,-286 193.5,-286 193.5,-256 46.5,-256"/>
<text text-anchor="start" x="53.4829" y="-268.8" font-family="Arial" font-size="14.00" fill="#000000">multi_line </text>
<text text-anchor="start" x="116.5103" y="-268.8" font-family="Arial" font-size="14.00" fill="#666666">[INTEGER]</text>
<polygon fill="none" stroke="#000000" points="46.5,-226 46.5,-256 193.5,-256 193.5,-226 46.5,-226"/>
<text text-anchor="start" x="53.5" y="-238.8" font-family="Arial" font-size="14.00" fill="#000000">time_format </text>
<text text-anchor="start" x="131.2998" y="-238.8" font-family="Arial" font-size="14.00" fill="#666666">[TEXT]</text>
<polygon fill="none" stroke="#000000" points="46.5,-196 46.5,-226 193.5,-226 193.5,-196 46.5,-196"/>
<text text-anchor="start" x="53.5" y="-208.8" font-family="Arial" font-size="14.00" fill="#000000">time_zone </text>
<text text-anchor="start" x="121.9824" y="-208.8" font-family="Arial" font-size="14.00" fill="#666666">[TEXT]</text>
<polygon fill="none" stroke="#000000" points="46.5,-166 46.5,-196 193.5,-196 193.5,-166 46.5,-166"/>
<text text-anchor="start" x="53.5" y="-178.8" font-family="Arial" font-size="14.00" fill="#000000">scheme </text>
<text text-anchor="start" x="106.4102" y="-178.8" font-family="Arial" font-size="14.00" fill="#666666">[TEXT]</text>
<polygon fill="none" stroke="#000000" points="46.5,-136 46.5,-166 193.5,-166 193.5,-136 46.5,-136"/>
<text text-anchor="start" x="53.5" y="-148.8" font-family="Arial" font-size="14.00" fill="#000000">host </text>
<text text-anchor="start" x="83.8516" y="-148.8" font-family="Arial" font-size="14.00" fill="#666666">[TEXT]</text>
<polygon fill="none" stroke="#000000" points="46.5,-106 46.5,-136 193.5,-136 193.5,-106 46.5,-106"/>
<text text-anchor="start" x="53.5" y="-118.8" font-family="Arial" font-size="14.00" fill="#000000">user </text>
<text text-anchor="start" x="84.624" y="-118.8" font-family="Arial" font-size="14.00" fill="#666666">[TEXT]</text>
<polygon fill="none" stroke="#000000" points="46.5,-76 46.5,-106 193.5,-106 193.5,-76 46.5,-76"/>
<text text-anchor="start" x="53.5" y="-88.8" font-family="Arial" font-size="14.00" fill="#000000">port </text>
<text text-anchor="start" x="81.5137" y="-88.8" font-family="Arial" font-size="14.00" fill="#666666">[INTEGER]</text>
<polygon fill="none" stroke="#000000" points="46.5,-46 46.5,-76 193.5,-76 193.5,-46 46.5,-46"/>
<text text-anchor="start" x="53.5" y="-58.8" font-family="Arial" font-size="14.00" fill="#000000">path </text>
<text text-anchor="start" x="84.6377" y="-58.8" font-family="Arial" font-size="14.00" fill="#666666">[TEXT]</text>
<polygon fill="none" stroke="#000000" stroke-width="3" points="44.5,-44.5 44.5,-471.5 194.5,-471.5 194.5,-44.5 44.5,-44.5"/>
</g>
</g>
</svg>
