<?xml version="1.0" encoding="UTF-8" standalone="no"?>
<!DOCTYPE svg PUBLIC "-//W3C//DTD SVG 1.1//EN"
 "http://www.w3.org/Graphics/SVG/1.1/DTD/svg11.dtd">
<!-- Generated by graphviz version 2.40.1 (20161225.0304)
 -->
<!-- Title: targets Pages: 1 -->
<svg width="496pt" height="1100pt"
 viewBox="0.00 0.00 495.50 1100.00" xmlns="http://www.w3.org/2000/svg" xmlns:xlink="http://www.w3.org/1999/xlink">
<g id="graph0" class="graph" transform="scale(1 1) rotate(0) translate(4 1096)">
<title>targets</title>
<polygon fill="#ffffff" stroke="transparent" points="-4,4 -4,-1096 491.5,-1096 491.5,4 -4,4"/>
<!-- targets -->
<g id="node1" class="node">
<title>targets</title>
<polygon fill="#efefef" stroke="transparent" points="163,-436 163,-470 310,-470 310,-436 163,-436"/>
<polygon fill="none" stroke="#000000" points="163,-436 163,-470 310,-470 310,-436 163,-436"/>
<text text-anchor="start" x="185.4761" y="-449.6" font-family="Arial Bold" font-size="18.00" fill="#000000">targets</text>
<text text-anchor="start" x="245.4966" y="-449.6" font-family="Arial" font-size="14.00" fill="#000000"> </text>
<text text-anchor="start" x="249.3862" y="-449.6" font-family="Arial" font-size="14.00" fill="#666666">[table]</text>
<polygon fill="none" stroke="#000000" points="163,-406 163,-436 310,-436 310,-406 163,-406"/>
<text text-anchor="start" x="170" y="-418.8" font-family="Arial" font-size="14.00" fill="#000000">id </text>
<text text-anchor="start" x="184.7861" y="-418.8" font-family="Arial" font-size="14.00" fill="#666666">[INTEGER]</text>
<polygon fill="none" stroke="#000000" points="163,-376 163,-406 310,-406 310,-376 163,-376"/>
<text text-anchor="start" x="170" y="-388.8" font-family="Arial" font-size="14.00" fill="#000000">source </text>
<text text-anchor="start" x="215.9102" y="-388.8" font-family="Arial" font-size="14.00" fill="#666666">[TEXT]</text>
<polygon fill="none" stroke="#000000" points="163,-346 163,-376 310,-376 310,-346 163,-346"/>
<text text-anchor="start" x="170" y="-358.8" font-family="Arial" font-size="14.00" fill="#000000">description </text>
<text text-anchor="start" x="241.5928" y="-358.8" font-family="Arial" font-size="14.00" fill="#666666">[TEXT]</text>
<polygon fill="none" stroke="#000000" points="163,-316 163,-346 310,-346 310,-316 163,-316"/>
<text text-anchor="start" x="170" y="-328.8" font-family="Arial" font-size="14.00" fill="#000000">type </text>
<text text-anchor="start" x="200.3516" y="-328.8" font-family="Arial" font-size="14.00" fill="#666666">[TEXT]</text>
<polygon fill="none" stroke="#000000" points="163,-286 163,-316 310,-316 310,-286 163,-286"/>
<text text-anchor="start" x="170" y="-298.8" font-family="Arial" font-size="14.00" fill="#000000">regexp </text>
<text text-anchor="start" x="216.6963" y="-298.8" font-family="Arial" font-size="14.00" fill="#666666">[TEXT]</text>
<polygon fill="none" stroke="#000000" points="163,-256 163,-286 310,-286 310,-256 163,-256"/>
<text text-anchor="start" x="169.9829" y="-268.8" font-family="Arial" font-size="14.00" fill="#000000">multi_line </text>
<text text-anchor="start" x="233.0103" y="-268.8" font-family="Arial" font-size="14.00" fill="#666666">[INTEGER]</text>
<polygon fill="none" stroke="#000000" points="163,-226 163,-256 310,-256 310,-226 163,-226"/>
<text text-anchor="start" x="170" y="-238.8" font-family="Arial" font-size="14.00" fill="#000000">time_format </text>
<text text-anchor="start" x="247.7998" y="-238.8" font-family="Arial" font-size="14.00" fill="#666666">[TEXT]</text>
<polygon fill="none" stroke="#000000" points="163,-196 163,-226 310,-226 310,-196 163,-196"/>
<text text-anchor="start" x="170" y="-208.8" font-family="Arial" font-size="14.00" fill="#000000">time_zone </text>
<text text-anchor="start" x="238.4824" y="-208.8" font-family="Arial" font-size="14.00" fill="#666666">[TEXT]</text>
<polygon fill="none" stroke="#000000" points="163,-166 163,-196 310,-196 310,-166 163,-166"/>
<text text-anchor="start" x="170" y="-178.8" font-family="Arial" font-size="14.00" fill="#000000">scheme </text>
<text text-anchor="start" x="222.9102" y="-178.8" font-family="Arial" font-size="14.00" fill="#666666">[TEXT]</text>
<polygon fill="none" stroke="#000000" points="163,-136 163,-166 310,-166 310,-136 163,-136"/>
<text text-anchor="start" x="170" y="-148.8" font-family="Arial" font-size="14.00" fill="#000000">host </text>
<text text-anchor="start" x="200.3516" y="-148.8" font-family="Arial" font-size="14.00" fill="#666666">[TEXT]</text>
<polygon fill="none" stroke="#000000" points="163,-106 163,-136 310,-136 310,-106 163,-106"/>
<text text-anchor="start" x="170" y="-118.8" font-family="Arial" font-size="14.00" fill="#000000">user </text>
<text text-anchor="start" x="201.124" y="-118.8" font-family="Arial" font-size="14.00" fill="#666666">[TEXT]</text>
<polygon fill="none" stroke="#000000" points="163,-76 163,-106 310,-106 310,-76 163,-76"/>
<text text-anchor="start" x="170" y="-88.8" font-family="Arial" font-size="14.00" fill="#000000">port </text>
<text text-anchor="start" x="198.0137" y="-88.8" font-family="Arial" font-size="14.00" fill="#666666">[INTEGER]</text>
<polygon fill="none" stroke="#000000" points="163,-46 163,-76 310,-76 310,-46 163,-46"/>
<text text-anchor="start" x="170" y="-58.8" font-family="Arial" font-size="14.00" fill="#000000">path </text>
<text text-anchor="start" x="201.1377" y="-58.8" font-family="Arial" font-size="14.00" fill="#666666">[TEXT]</text>
<polygon fill="none" stroke="#000000" stroke-width="3" points="161,-44.5 161,-471.5 311,-471.5 311,-44.5 161,-44.5"/>
</g>
<!-- logs -->
<g id="node2" class="node">
<title>logs</title>
<polygon fill="#efefef" stroke="transparent" points="43,-1015 43,-1049 177,-1049 177,-1015 43,-1015"/>
<polygon fill="none" stroke="#000000" points="43,-1015 43,-1049 177,-1049 177,-1015 43,-1015"/>
<text text-anchor="start" x="49.8682" y="-1028.6" font-family="Arial Bold" font-size="18.00" fill="#000000">logs</text>
<text text-anchor="start" x="86.8701" y="-1028.6" font-family="Arial" font-size="14.00" fill="#000000"> </text>
<text text-anchor="start" x="90.7598" y="-1028.6" font-family="Arial" font-size="14.00" fill="#666666">[virtual table]</text>
<polygon fill="none" stroke="#000000" points="43,-985 43,-1015 177,-1015 177,-985 43,-985"/>
<text text-anchor="start" x="50" y="-997.8" font-family="Arial" font-size="14.00" fill="#000000">host </text>
<text text-anchor="start" x="80.3516" y="-997.8" font-family="Arial" font-size="14.00" fill="#666666">[]</text>
<polygon fill="none" stroke="#000000" points="43,-955 43,-985 177,-985 177,-955 43,-955"/>
<text text-anchor="start" x="50" y="-967.8" font-family="Arial" font-size="14.00" fill="#000000">path </text>
<text text-anchor="start" x="81.1377" y="-967.8" font-family="Arial" font-size="14.00" fill="#666666">[]</text>
<polygon fill="none" stroke="#000000" points="43,-925 43,-955 177,-955 177,-925 43,-925"/>
<text text-anchor="start" x="50" y="-937.8" font-family="Arial" font-size="14.00" fill="#000000">target_id </text>
<text text-anchor="start" x="108.3721" y="-937.8" font-family="Arial" font-size="14.00" fill="#666666">[]</text>
<polygon fill="none" stroke="#000000" points="43,-895 43,-925 177,-925 177,-895 43,-895"/>
<text text-anchor="start" x="50" y="-907.8" font-family="Arial" font-size="14.00" fill="#000000">ts </text>
<text text-anchor="start" x="64.7793" y="-907.8" font-family="Arial" font-size="14.00" fill="#666666">[]</text>
<polygon fill="none" stroke="#000000" points="43,-865 43,-895 177,-895 177,-865 43,-865"/>
<text text-anchor="start" x="50" y="-877.8" font-family="Arial" font-size="14.00" fill="#000000">ts_unixnano </text>
<text text-anchor="start" x="129.3926" y="-877.8" font-family="Arial" font-size="14.00" fill="#666666">[]</text>
<polygon fill="none" stroke="#000000" points="43,-835 43,-865 177,-865 177,-835 43,-835"/>
<text text-anchor="start" x="50" y="-847.8" font-family="Arial" font-size="14.00" fill="#000000">ts_year </text>
<text text-anchor="start" x="99.7998" y="-847.8" font-family="Arial" font-size="14.00" fill="#666666">[]</text>
<polygon fill="none" stroke="#000000" points="43,-805 43,-835 177,-835 177,-805 43,-805"/>
<text text-anchor="start" x="50" y="-817.8" font-family="Arial" font-size="14.00" fill="#000000">ts_month </text>
<text text-anchor="start" x="111.4756" y="-817.8" font-family="Arial" font-size="14.00" fill="#666666">[]</text>
<polygon fill="none" stroke="#000000" points="43,-775 43,-805 177,-805 177,-775 43,-775"/>
<text text-anchor="start" x="50" y="-787.8" font-family="Arial" font-size="14.00" fill="#000000">ts_day </text>
<text text-anchor="start" x="95.1377" y="-787.8" font-family="Arial" font-size="14.00" fill="#666666">[]</text>
<polygon fill="none" stroke="#000000" points="43,-745 43,-775 177,-775 177,-745 43,-745"/>
<text text-anchor="start" x="50" y="-757.8" font-family="Arial" font-size="14.00" fill="#000000">ts_hour </text>
<text text-anchor="start" x="100.5859" y="-757.8" font-family="Arial" font-size="14.00" fill="#666666">[]</text>
<polygon fill="none" stroke="#000000" points="43,-715 43,-745 177,-745 177,-715 43,-715"/>
<text text-anchor="start" x="50" y="-727.8" font-family="Arial" font-size="14.00" fill="#000000">ts_minute </text>
<text text-anchor="start" x="114.5859" y="-727.8" font-family="Arial" font-size="14.00" fill="#666666">[]</text>
<polygon fill="none" stroke="#000000" points="43,-685 43,-715 177,-715 177,-685 43,-685"/>
<text text-anchor="start" x="50" y="-697.8" font-family="Arial" font-size="14.00" fill="#000000">ts_second </text>
<text text-anchor="start" x="117.71" y="-697.8" font-family="Arial" font-size="14.00" fill="#666666">[]</text>
<polygon fill="none" stroke="#000000" points="43,-655 43,-685 177,-685 177,-655 43,-655"/>
<text text-anchor="start" x="50" y="-667.8" font-family="Arial" font-size="14.00" fill="#000000">ts_time_zone </text>
<text text-anchor="start" x="137.1582" y="-667.8" font-family="Arial" font-size="14.00" fill="#666666">[]</text>
<polygon fill="none" stroke="#000000" points="43,-625 43,-655 177,-655 177,-625 43,-625"/>
<text text-anchor="start" x="50" y="-637.8" font-family="Arial" font-size="14.00" fill="#000000">filled_by_prev_ts </text>
<text text-anchor="start" x="158.9512" y="-637.8" font-family="Arial" font-size="14.00" fill="#666666">[]</text>
<polygon fill="none" stroke="#000000" points="43,-595 43,-625 177,-625 177,-595 43,-595"/>
<text text-anchor="start" x="50" y="-607.8" font-family="Arial" font-size="14.00" fill="#000000">content </text>
<text text-anchor="start" x="99.8135" y="-607.8" font-family="Arial" font-size="14.00" fill="#666666">[]</text>
</g>
<!-- logs&#45;&gt;targets -->
<g id="edge1" class="edge">
<title>logs:target_id&#45;&gt;targets:id</title>
<path fill="none" stroke="#000000" stroke-dasharray="5,2" d="M187.2642,-938.3617C257.2792,-914.3424 192.2149,-633.1025 177,-552 173.8346,-535.1271 166.1654,-532.8729 163,-516 155.2149,-474.5017 120.7778,-421 163,-421"/>
<polygon fill="#000000" stroke="#000000" points="186.875,-938.4237 176.2907,-935.5563 181.9375,-939.2119 177,-940 177,-940 177,-940 181.9375,-939.2119 177.7093,-944.4437 186.875,-938.4237 186.875,-938.4237"/>
<text text-anchor="start" x="184.1787" y="-949.5" font-family="Arial" font-size="10.00" fill="#000000">logs &#45;&gt; targets</text>
</g>
<!-- targets_tags -->
<g id="node3" class="node">
<title>targets_tags</title>
<polygon fill="#efefef" stroke="transparent" points="282,-850 282,-884 445,-884 445,-850 282,-850"/>
<polygon fill="none" stroke="#000000" points="282,-850 282,-884 445,-884 445,-850 282,-850"/>
<text text-anchor="start" x="288.9653" y="-863.6" font-family="Arial Bold" font-size="18.00" fill="#000000">targets_tags</text>
<text text-anchor="start" x="396.0073" y="-863.6" font-family="Arial" font-size="14.00" fill="#000000"> </text>
<text text-anchor="start" x="399.897" y="-863.6" font-family="Arial" font-size="14.00" fill="#666666">[table]</text>
<polygon fill="none" stroke="#000000" points="282,-820 282,-850 445,-850 445,-820 282,-820"/>
<text text-anchor="start" x="289" y="-832.8" font-family="Arial" font-size="14.00" fill="#000000">id </text>
<text text-anchor="start" x="303.7861" y="-832.8" font-family="Arial" font-size="14.00" fill="#666666">[INTEGER]</text>
<polygon fill="none" stroke="#000000" points="282,-790 282,-820 445,-820 445,-790 282,-790"/>
<text text-anchor="start" x="289" y="-802.8" font-family="Arial" font-size="14.00" fill="#000000">target_id </text>
<text text-anchor="start" x="347.3721" y="-802.8" font-family="Arial" font-size="14.00" fill="#666666">[INTEGER]</text>
<polygon fill="none" stroke="#000000" points="282,-760 282,-790 445,-790 445,-760 282,-760"/>
<text text-anchor="start" x="289" y="-772.8" font-family="Arial" font-size="14.00" fill="#000000">tag_id </text>
<text text-anchor="start" x="331.0342" y="-772.8" font-family="Arial" font-size="14.00" fill="#666666">[INTEGER]</text>
</g>
<!-- targets_tags&#45;&gt;targets -->
<g id="edge2" class="edge">
<title>targets_tags:target_id&#45;&gt;targets:id</title>
<path fill="none" stroke="#000000" stroke-dasharray="5,2" d="M271.7097,-804.4759C126.5391,-788.6772 477.4434,-421 310,-421"/>
<polygon fill="#000000" stroke="#000000" points="272.0129,-804.4912 281.7711,-809.4942 277.0065,-804.7456 282,-805 282,-805 282,-805 277.0065,-804.7456 282.2289,-800.5058 272.0129,-804.4912 272.0129,-804.4912"/>
<text text-anchor="start" x="231.834" y="-789.5" font-family="Arial" font-size="10.00" fill="#000000">targets_tags &#45;&gt; targets</text>
</g>
</g>
</svg>
