<?xml version="1.0" encoding="UTF-8" standalone="no"?>
<!DOCTYPE svg PUBLIC "-//W3C//DTD SVG 1.1//EN"
 "http://www.w3.org/Graphics/SVG/1.1/DTD/svg11.dtd">
<!-- Generated by graphviz version 2.40.1 (20161225.0304)
 -->
<!-- Title: targets_tags Pages: 1 -->
<svg width="444pt" height="770pt"
 viewBox="0.00 0.00 443.50 770.00" xmlns="http://www.w3.org/2000/svg" xmlns:xlink="http://www.w3.org/1999/xlink">
<g id="graph0" class="graph" transform="scale(1 1) rotate(0) translate(4 766)">
<title>targets_tags</title>
<polygon fill="#ffffff" stroke="transparent" points="-4,4 -4,-766 439.5,-766 439.5,4 -4,4"/>
<!-- targets_tags -->
<g id="node1" class="node">
<title>targets_tags</title>
<polygon fill="#efefef" stroke="transparent" points="148.5,-682 148.5,-716 311.5,-716 311.5,-682 148.5,-682"/>
<polygon fill="none" stroke="#000000" points="148.5,-682 148.5,-716 311.5,-716 311.5,-682 148.5,-682"/>
<text text-anchor="start" x="155.4653" y="-695.6" font-family="Arial Bold" font-size="18.00" fill="#000000">targets_tags</text>
<text text-anchor="start" x="262.5073" y="-695.6" font-family="Arial" font-size="14.00" fill="#000000"> </text>
<text text-anchor="start" x="266.397" y="-695.6" font-family="Arial" font-size="14.00" fill="#666666">[table]</text>
<polygon fill="none" stroke="#000000" points="148.5,-652 148.5,-682 311.5,-682 311.5,-652 148.5,-652"/>
<text text-anchor="start" x="155.5" y="-664.8" font-family="Arial" font-size="14.00" fill="#000000">id </text>
<text text-anchor="start" x="170.2861" y="-664.8" font-family="Arial" font-size="14.00" fill="#666666">[INTEGER]</text>
<polygon fill="none" stroke="#000000" points="148.5,-622 148.5,-652 311.5,-652 311.5,-622 148.5,-622"/>
<text text-anchor="start" x="155.5" y="-634.8" font-family="Arial" font-size="14.00" fill="#000000">target_id </text>
<text text-anchor="start" x="213.8721" y="-634.8" font-family="Arial" font-size="14.00" fill="#666666">[INTEGER]</text>
<polygon fill="none" stroke="#000000" points="148.5,-592 148.5,-622 311.5,-622 311.5,-592 148.5,-592"/>
<text text-anchor="start" x="155.5" y="-604.8" font-family="Arial" font-size="14.00" fill="#000000">tag_id </text>
<text text-anchor="start" x="197.5342" y="-604.8" font-family="Arial" font-size="14.00" fill="#666666">[INTEGER]</text>
<polygon fill="none" stroke="#000000" stroke-width="3" points="146.5,-590.5 146.5,-717.5 312.5,-717.5 312.5,-590.5 146.5,-590.5"/>
</g>
<!-- targets -->
<g id="node2" class="node">
<title>targets</title>
<polygon fill="#efefef" stroke="transparent" points="43.5,-433 43.5,-467 190.5,-467 190.5,-433 43.5,-433"/>
<polygon fill="none" stroke="#000000" points="43.5,-433 43.5,-467 190.5,-467 190.5,-433 43.5,-433"/>
<text text-anchor="start" x="65.9761" y="-446.6" font-family="Arial Bold" font-size="18.00" fill="#000000">targets</text>
<text text-anchor="start" x="125.9966" y="-446.6" font-family="Arial" font-size="14.00" fill="#000000"> </text>
<text text-anchor="start" x="129.8862" y="-446.6" font-family="Arial" font-size="14.00" fill="#666666">[table]</text>
<polygon fill="none" stroke="#000000" points="43.5,-403 43.5,-433 190.5,-433 190.5,-403 43.5,-403"/>
<text text-anchor="start" x="50.5" y="-415.8" font-family="Arial" font-size="14.00" fill="#000000">id </text>
<text text-anchor="start" x="65.2861" y="-415.8" font-family="Arial" font-size="14.00" fill="#666666">[INTEGER]</text>
<polygon fill="none" stroke="#000000" points="43.5,-373 43.5,-403 190.5,-403 190.5,-373 43.5,-373"/>
<text text-anchor="start" x="50.5" y="-385.8" font-family="Arial" font-size="14.00" fill="#000000">source </text>
<text text-anchor="start" x="96.4102" y="-385.8" font-family="Arial" font-size="14.00" fill="#666666">[TEXT]</text>
<polygon fill="none" stroke="#000000" points="43.5,-343 43.5,-373 190.5,-373 190.5,-343 43.5,-343"/>
<text text-anchor="start" x="50.5" y="-355.8" font-family="Arial" font-size="14.00" fill="#000000">description </text>
<text text-anchor="start" x="122.0928" y="-355.8" font-family="Arial" font-size="14.00" fill="#666666">[TEXT]</text>
<polygon fill="none" stroke="#000000" points="43.5,-313 43.5,-343 190.5,-343 190.5,-313 43.5,-313"/>
<text text-anchor="start" x="50.5" y="-325.8" font-family="Arial" font-size="14.00" fill="#000000">type </text>
<text text-anchor="start" x="80.8516" y="-325.8" font-family="Arial" font-size="14.00" fill="#666666">[TEXT]</text>
<polygon fill="none" stroke="#000000" points="43.5,-283 43.5,-313 190.5,-313 190.5,-283 43.5,-283"/>
<text text-anchor="start" x="50.5" y="-295.8" font-family="Arial" font-size="14.00" fill="#000000">regexp </text>
<text text-anchor="start" x="97.1963" y="-295.8" font-family="Arial" font-size="14.00" fill="#666666">[TEXT]</text>
<polygon fill="none" stroke="#000000" points="43.5,-253 43.5,-283 190.5,-283 190.5,-253 43.5,-253"/>
<text text-anchor="start" x="50.4829" y="-265.8" font-family="Arial" font-size="14.00" fill="#000000">multi_line </text>
<text text-anchor="start" x="113.5103" y="-265.8" font-family="Arial" font-size="14.00" fill="#666666">[INTEGER]</text>
<polygon fill="none" stroke="#000000" points="43.5,-223 43.5,-253 190.5,-253 190.5,-223 43.5,-223"/>
<text text-anchor="start" x="50.5" y="-235.8" font-family="Arial" font-size="14.00" fill="#000000">time_format </text>
<text text-anchor="start" x="128.2998" y="-235.8" font-family="Arial" font-size="14.00" fill="#666666">[TEXT]</text>
<polygon fill="none" stroke="#000000" points="43.5,-193 43.5,-223 190.5,-223 190.5,-193 43.5,-193"/>
<text text-anchor="start" x="50.5" y="-205.8" font-family="Arial" font-size="14.00" fill="#000000">time_zone </text>
<text text-anchor="start" x="118.9824" y="-205.8" font-family="Arial" font-size="14.00" fill="#666666">[TEXT]</text>
<polygon fill="none" stroke="#000000" points="43.5,-163 43.5,-193 190.5,-193 190.5,-163 43.5,-163"/>
<text text-anchor="start" x="50.5" y="-175.8" font-family="Arial" font-size="14.00" fill="#000000">scheme </text>
<text text-anchor="start" x="103.4102" y="-175.8" font-family="Arial" font-size="14.00" fill="#666666">[TEXT]</text>
<polygon fill="none" stroke="#000000" points="43.5,-133 43.5,-163 190.5,-163 190.5,-133 43.5,-133"/>
<text text-anchor="start" x="50.5" y="-145.8" font-family="Arial" font-size="14.00" fill="#000000">host </text>
<text text-anchor="start" x="80.8516" y="-145.8" font-family="Arial" font-size="14.00" fill="#666666">[TEXT]</text>
<polygon fill="none" stroke="#000000" points="43.5,-103 43.5,-133 190.5,-133 190.5,-103 43.5,-103"/>
<text text-anchor="start" x="50.5" y="-115.8" font-family="Arial" font-size="14.00" fill="#000000">user </text>
<text text-anchor="start" x="81.624" y="-115.8" font-family="Arial" font-size="14.00" fill="#666666">[TEXT]</text>
<polygon fill="none" stroke="#000000" points="43.5,-73 43.5,-103 190.5,-103 190.5,-73 43.5,-73"/>
<text text-anchor="start" x="50.5" y="-85.8" font-family="Arial" font-size="14.00" fill="#000000">port </text>
<text text-anchor="start" x="78.5137" y="-85.8" font-family="Arial" font-size="14.00" fill="#666666">[INTEGER]</text>
<polygon fill="none" stroke="#000000" points="43.5,-43 43.5,-73 190.5,-73 190.5,-43 43.5,-43"/>
<text text-anchor="start" x="50.5" y="-55.8" font-family="Arial" font-size="14.00" fill="#000000">path </text>
<text text-anchor="start" x="81.6377" y="-55.8" font-family="Arial" font-size="14.00" fill="#666666">[TEXT]</text>
</g>
<!-- targets_tags&#45;&gt;targets -->
<g id="edge1" class="edge">
<title>targets_tags:target_id&#45;&gt;targets:id</title>
<path fill="none" stroke="#000000" stroke-dasharray="5,2" d="M138.416,-635.5146C112.5907,-626.5702 133.2504,-579.156 148.5,-546 158.7732,-523.6638 180.2268,-532.3362 190.5,-510 207.5857,-472.8519 231.3889,-418 190.5,-418"/>
<polygon fill="#000000" stroke="#000000" points="138.6068,-635.5426 147.8442,-641.452 143.5534,-636.2713 148.5,-637 148.5,-637 148.5,-637 143.5534,-636.2713 149.1558,-632.548 138.6068,-635.5426 138.6068,-635.5426"/>
<text text-anchor="start" x="41.334" y="-646.5" font-family="Arial" font-size="10.00" fill="#000000">targets_tags &#45;&gt; targets</text>
</g>
<!-- tags -->
<g id="node3" class="node">
<title>tags</title>
<polygon fill="#efefef" stroke="transparent" points="294.5,-268 294.5,-302 392.5,-302 392.5,-268 294.5,-268"/>
<polygon fill="none" stroke="#000000" points="294.5,-268 294.5,-302 392.5,-302 392.5,-268 294.5,-268"/>
<text text-anchor="start" x="303.981" y="-281.6" font-family="Arial Bold" font-size="18.00" fill="#000000">tags</text>
<text text-anchor="start" x="340.9917" y="-281.6" font-family="Arial" font-size="14.00" fill="#000000"> </text>
<text text-anchor="start" x="344.8813" y="-281.6" font-family="Arial" font-size="14.00" fill="#666666">[table]</text>
<polygon fill="none" stroke="#000000" points="294.5,-238 294.5,-268 392.5,-268 392.5,-238 294.5,-238"/>
<text text-anchor="start" x="301.1035" y="-250.8" font-family="Arial" font-size="14.00" fill="#000000">id </text>
<text text-anchor="start" x="315.8896" y="-250.8" font-family="Arial" font-size="14.00" fill="#666666">[INTEGER]</text>
<polygon fill="none" stroke="#000000" points="294.5,-208 294.5,-238 392.5,-238 392.5,-208 294.5,-208"/>
<text text-anchor="start" x="301.5" y="-220.8" font-family="Arial" font-size="14.00" fill="#000000">name </text>
<text text-anchor="start" x="340.4102" y="-220.8" font-family="Arial" font-size="14.00" fill="#666666">[TEXT]</text>
</g>
<!-- targets_tags&#45;&gt;tags -->
<g id="edge2" class="edge">
<title>targets_tags:tag_id&#45;&gt;tags:id</title>
<path fill="none" stroke="#000000" stroke-dasharray="5,2" d="M321.7811,-606.4257C453.7197,-590.6007 140.6771,-253 294.5,-253"/>
<polygon fill="#000000" stroke="#000000" points="321.4844,-606.4422 311.249,-602.507 316.4922,-606.7211 311.5,-607 311.5,-607 311.5,-607 316.4922,-606.7211 311.751,-611.493 321.4844,-606.4422 321.4844,-606.4422"/>
<text text-anchor="start" x="318.1689" y="-616.5" font-family="Arial" font-size="10.00" fill="#000000">targets_tags &#45;&gt; tags</text>
</g>
</g>
</svg>
