<?xml version="1.0" encoding="UTF-8" standalone="no"?>
<!DOCTYPE svg PUBLIC "-//W3C//DTD SVG 1.1//EN"
 "http://www.w3.org/Graphics/SVG/1.1/DTD/svg11.dtd">
<!-- Generated by graphviz version 2.40.1 (20161225.0304)
 -->
<!-- Title: targets Pages: 1 -->
<svg width="496pt" height="860pt"
 viewBox="0.00 0.00 495.50 860.00" xmlns="http://www.w3.org/2000/svg" xmlns:xlink="http://www.w3.org/1999/xlink">
<g id="graph0" class="graph" transform="scale(1 1) rotate(0) translate(4 856)">
<title>targets</title>
<polygon fill="#ffffff" stroke="transparent" points="-4,4 -4,-856 491.5,-856 491.5,4 -4,4"/>
<!-- targets -->
<g id="node1" class="node">
<title>targets</title>
<polygon fill="#efefef" stroke="transparent" points="163,-436 163,-470 310,-470 310,-436 163,-436"/>
<polygon fill="none" stroke="#000000" points="163,-436 163,-470 310,-470 310,-436 163,-436"/>
<text text-anchor="start" x="185.4761" y="-449.6" font-family="Arial Bold" font-size="18.00" fill="#000000">targets</text>
<text text-anchor="start" x="245.4966" y="-449.6" font-family="Arial" font-size="14.00" fill="#000000"> </text>
<text text-anchor="start" x="249.3862" y="-449.6" font-family="Arial" font-size="14.00" fill="#666666">[table]</text>
<polygon fill="none" stroke="#000000" points="163,-406 163,-436 310,-436 310,-406 163,-406"/>
<text text-anchor="start" x="170" y="-418.8" font-family="Arial" font-size="14.00" fill="#000000">id </text>
<text text-anchor="start" x="184.7861" y="-418.8" font-family="Arial" font-size="14.00" fill="#666666">[INTEGER]</text>
<polygon fill="none" stroke="#000000" points="163,-376 163,-406 310,-406 310,-376 163,-376"/>
<text text-anchor="start" x="170" y="-388.8" font-family="Arial" font-size="14.00" fill="#000000">source </text>
<text text-anchor="start" x="215.9102" y="-388.8" font-family="Arial" font-size="14.00" fill="#666666">[TEXT]</text>
<polygon fill="none" stroke="#000000" points="163,-346 163,-376 310,-376 310,-346 163,-346"/>
<text text-anchor="start" x="170" y="-358.8" font-family="Arial" font-size="14.00" fill="#000000">description </text>
<text text-anchor="start" x="241.5928" y="-358.8" font-family="Arial" font-size="14.00" fill="#666666">[TEXT]</text>
<polygon fill="none" stroke="#000000" points="163,-316 163,-346 310,-346 310,-316 163,-316"/>
<text text-anchor="start" x="170" y="-328.8" font-family="Arial" font-size="14.00" fill="#000000">type </text>
<text text-anchor="start" x="200.3516" y="-328.8" font-family="Arial" font-size="14.00" fill="#666666">[TEXT]</text>
<polygon fill="none" stroke="#000000" points="163,-286 163,-316 310,-316 310,-286 163,-286"/>
<text text-anchor="start" x="170" y="-298.8" font-family="Arial" font-size="14.00" fill="#000000">regexp </text>
<text text-anchor="start" x="216.6963" y="-298.8" font-family="Arial" font-size="14.00" fill="#666666">[TEXT]</text>
<polygon fill="none" stroke="#000000" points="163,-256 163,-286 310,-286 310,-256 163,-256"/>
<text text-anchor="start" x="169.9829" y="-268.8" font-family="Arial" font-size="14.00" fill="#000000">multi_line </text>
<text text-anchor="start" x="233.0103" y="-268.8" font-family="Arial" font-size="14.00" fill="#666666">[INTEGER]</text>
<polygon fill="none" stroke="#000000" points="163,-226 163,-256 310,-256 310,-226 163,-226"/>
<text text-anchor="start" x="170" y="-238.8" font-family="Arial" font-size="14.00" fill="#000000">time_format </text>
<text text-anchor="start" x="247.7998" y="-238.8" font-family="Arial" font-size="14.00" fill="#666666">[TEXT]</text>
<polygon fill="none" stroke="#000000" points="163,-196 163,-226 310,-226 310,-196 163,-196"/>
<text text-anchor="start" x="170" y="-208.8" font-family="Arial" font-size="14.00" fill="#000000">time_zone </text>
<text text-anchor="start" x="238.4824" y="-208.8" font-family="Arial" font-size="14.00" fill="#666666">[TEXT]</text>
<polygon fill="none" stroke="#000000" points="163,-166 163,-196 310,-196 310,-166 163,-166"/>
<text text-anchor="start" x="170" y="-178.8" font-family="Arial" font-size="14.00" fill="#000000">scheme </text>
<text text-anchor="start" x="222.9102" y="-178.8" font-family="Arial" font-size="14.00" fill="#666666">[TEXT]</text>
<polygon fill="none" stroke="#000000" points="163,-136 163,-166 310,-166 310,-136 163,-136"/>
<text text-anchor="start" x="170" y="-148.8" font-family="Arial" font-size="14.00" fill="#000000">host </text>
<text text-anchor="start" x="200.3516" y="-148.8" font-family="Arial" font-size="14.00" fill="#666666">[TEXT]</text>
<polygon fill="none" stroke="#000000" points="163,-106 163,-136 310,-136 310,-106 163,-106"/>
<text text-anchor="start" x="170" y="-118.8" font-family="Arial" font-size="14.00" fill="#000000">user </text>
<text text-anchor="start" x="201.124" y="-118.8" font-family="Arial" font-size="14.00" fill="#666666">[TEXT]</text>
<polygon fill="none" stroke="#000000" points="163,-76 163,-106 310,-106 310,-76 163,-76"/>
<text text-anchor="start" x="170" y="-88.8" font-family="Arial" font-size="14.00" fill="#000000">port </text>
<text text-anchor="start" x="198.0137" y="-88.8" font-family="Arial" font-size="14.00" fill="#666666">[INTEGER]</text>
<polygon fill="none" stroke="#000000" points="163,-46 163,-76 310,-76 310,-46 163,-46"/>
<text text-anchor="start" x="170" y="-58.8" font-family="Arial" font-size="14.00" fill="#000000">path </text>
<text text-anchor="start" x="201.1377" y="-58.8" font-family="Arial" font-size="14.00" fill="#666666">[TEXT]</text>
<polygon fill="none" stroke="#000000" stroke-width="3" points="161,-44.5 161,-471.5 311,-471.5 311,-44.5 161,-44.5"/>
</g>
<!-- logs -->
<g id="node2" class="node">
<title>logs</title>
<polygon fill="#efefef" stroke="transparent" points="43,-775 43,-809 177,-809 177,-775 43,-775"/>
<polygon fill="none" stroke="#000000" points="43,-775 43,-809 177,-809 177,-775 43,-775"/>
<text text-anchor="start" x="49.8682" y="-788.6" font-family="Arial Bold" font-size="18.00" fill="#000000">logs</text>
<text text-anchor="start" x="86.8701" y="-788.6" font-family="Arial" font-size="14.00" fill="#000000"> </text>
<text text-anchor="start" x="90.7598" y="-788.6" font-family="Arial" font-size="14.00" fill="#666666">[virtual table]</text>
<polygon fill="none" stroke="#000000" points="43,-745 43,-775 177,-775 177,-745 43,-745"/>
<text text-anchor="start" x="50" y="-757.8" font-family="Arial" font-size="14.00" fill="#000000">host </text>
<text text-anchor="start" x="80.3516" y="-757.8" font-family="Arial" font-size="14.00" fill="#666666">[]</text>
<polygon fill="none" stroke="#000000" points="43,-715 43,-745 177,-745 177,-715 43,-715"/>
<text text-anchor="start" x="50" y="-727.8" font-family="Arial" font-size="14.00" fill="#000000">path </text>
<text text-anchor="start" x="81.1377" y="-727.8" font-family="Arial" font-size="14.00" fill="#666666">[]</text>
<polygon fill="none" stroke="#000000" points="43,-685 43,-715 177,-715 177,-685 43,-685"/>
<text text-anchor="start" x="50" y="-697.8" font-family="Arial" font-size="14.00" fill="#000000">target_id </text>
<text text-anchor="start" x="108.3721" y="-697.8" font-family="Arial" font-size="14.00" fill="#666666">[]</text>
<polygon fill="none" stroke="#000000" points="43,-655 43,-685 177,-685 177,-655 43,-655"/>
<text text-anchor="start" x="50" y="-667.8" font-family="Arial" font-size="14.00" fill="#000000">ts </text>
<text text-anchor="start" x="64.7793" y="-667.8" font-family="Arial" font-size="14.00" fill="#666666">[]</text>
<polygon fill="none" stroke="#000000" points="43,-625 43,-655 177,-655 177,-625 43,-625"/>
<text text-anchor="start" x="50" y="-637.8" font-family="Arial" font-size="14.00" fill="#000000">filled_by_prev_ts </text>
<text text-anchor="start" x="158.9512" y="-637.8" font-family="Arial" font-size="14.00" fill="#666666">[]</text>
<polygon fill="none" stroke="#000000" points="43,-595 43,-625 177,-625 177,-595 43,-595"/>
<text text-anchor="start" x="50" y="-607.8" font-family="Arial" font-size="14.00" fill="#000000">content </text>
<text text-anchor="start" x="99.8135" y="-607.8" font-family="Arial" font-size="14.00" fill="#666666">[]</text>
</g>
<!-- logs&#45;&gt;targets -->
<g id="edge1" class="edge">
<title>logs:target_id&#45;&gt;targets:id</title>
<path fill="none" stroke="#000000" stroke-dasharray="5,2" d="M187.0569,-699.2163C236.8335,-690.618 188.4414,-612.9881 177,-552 173.8346,-535.1271 166.1654,-532.8729 163,-516 155.2149,-474.5017 120.7778,-421 163,-421"/>
<polygon fill="#000000" stroke="#000000" points="186.9698,-699.223 176.6504,-695.5136 181.9849,-699.6115 177,-700 177,-700 177,-700 181.9849,-699.6115 177.3496,-704.4864 186.9698,-699.223 186.9698,-699.223"/>
<text text-anchor="start" x="164.9287" y="-684.5" font-family="Arial" font-size="10.00" fill="#000000">logs &#45;&gt; targets</text>
</g>
<!-- targets_tags -->
<g id="node3" class="node">
<title>targets_tags</title>
<polygon fill="#efefef" stroke="transparent" points="282,-730 282,-764 445,-764 445,-730 282,-730"/>
<polygon fill="none" stroke="#000000" points="282,-730 282,-764 445,-764 445,-730 282,-730"/>
<text text-anchor="start" x="288.9653" y="-743.6" font-family="Arial Bold" font-size="18.00" fill="#000000">targets_tags</text>
<text text-anchor="start" x="396.0073" y="-743.6" font-family="Arial" font-size="14.00" fill="#000000"> </text>
<text text-anchor="start" x="399.897" y="-743.6" font-family="Arial" font-size="14.00" fill="#666666">[table]</text>
<polygon fill="none" stroke="#000000" points="282,-700 282,-730 445,-730 445,-700 282,-700"/>
<text text-anchor="start" x="289" y="-712.8" font-family="Arial" font-size="14.00" fill="#000000">id </text>
<text text-anchor="start" x="303.7861" y="-712.8" font-family="Arial" font-size="14.00" fill="#666666">[INTEGER]</text>
<polygon fill="none" stroke="#000000" points="282,-670 282,-700 445,-700 445,-670 282,-670"/>
<text text-anchor="start" x="289" y="-682.8" font-family="Arial" font-size="14.00" fill="#000000">target_id </text>
<text text-anchor="start" x="347.3721" y="-682.8" font-family="Arial" font-size="14.00" fill="#666666">[INTEGER]</text>
<polygon fill="none" stroke="#000000" points="282,-640 282,-670 445,-670 445,-640 282,-640"/>
<text text-anchor="start" x="289" y="-652.8" font-family="Arial" font-size="14.00" fill="#000000">tag_id </text>
<text text-anchor="start" x="331.0342" y="-652.8" font-family="Arial" font-size="14.00" fill="#666666">[INTEGER]</text>
</g>
<!-- targets_tags&#45;&gt;targets -->
<g id="edge2" class="edge">
<title>targets_tags:target_id&#45;&gt;targets:id</title>
<path fill="none" stroke="#000000" stroke-dasharray="5,2" d="M271.7572,-684.1951C180.6264,-668.2586 424.189,-421 310,-421"/>
<polygon fill="#000000" stroke="#000000" points="272.0307,-684.2165 281.6474,-689.4862 277.0154,-684.6083 282,-685 282,-685 282,-685 277.0154,-684.6083 282.3526,-680.5138 272.0307,-684.2165 272.0307,-684.2165"/>
<text text-anchor="start" x="288.834" y="-694.5" font-family="Arial" font-size="10.00" fill="#000000">targets_tags &#45;&gt; targets</text>
</g>
</g>
</svg>
