<?xml version="1.0" encoding="UTF-8" standalone="no"?>
<!DOCTYPE svg PUBLIC "-//W3C//DTD SVG 1.1//EN"
 "http://www.w3.org/Graphics/SVG/1.1/DTD/svg11.dtd">
<!-- Generated by graphviz version 2.40.1 (20161225.0304)
 -->
<!-- Title: targets_tags Pages: 1 -->
<svg width="263pt" height="224pt"
 viewBox="0.00 0.00 263.00 224.00" xmlns="http://www.w3.org/2000/svg" xmlns:xlink="http://www.w3.org/1999/xlink">
<g id="graph0" class="graph" transform="scale(1 1) rotate(0) translate(4 220)">
<title>targets_tags</title>
<polygon fill="#ffffff" stroke="transparent" points="-4,4 -4,-220 259,-220 259,4 -4,4"/>
<!-- targets_tags -->
<g id="node1" class="node">
<title>targets_tags</title>
<polygon fill="#efefef" stroke="transparent" points="46.5,-136 46.5,-170 209.5,-170 209.5,-136 46.5,-136"/>
<polygon fill="none" stroke="#000000" points="46.5,-136 46.5,-170 209.5,-170 209.5,-136 46.5,-136"/>
<text text-anchor="start" x="53.4653" y="-149.6" font-family="Arial Bold" font-size="18.00" fill="#000000">targets_tags</text>
<text text-anchor="start" x="160.5073" y="-149.6" font-family="Arial" font-size="14.00" fill="#000000"> </text>
<text text-anchor="start" x="164.397" y="-149.6" font-family="Arial" font-size="14.00" fill="#666666">[table]</text>
<polygon fill="none" stroke="#000000" points="46.5,-106 46.5,-136 209.5,-136 209.5,-106 46.5,-106"/>
<text text-anchor="start" x="53.5" y="-118.8" font-family="Arial" font-size="14.00" fill="#000000">id </text>
<text text-anchor="start" x="68.2861" y="-118.8" font-family="Arial" font-size="14.00" fill="#666666">[INTEGER]</text>
<polygon fill="none" stroke="#000000" points="46.5,-76 46.5,-106 209.5,-106 209.5,-76 46.5,-76"/>
<text text-anchor="start" x="53.5" y="-88.8" font-family="Arial" font-size="14.00" fill="#000000">target_id </text>
<text text-anchor="start" x="111.8721" y="-88.8" font-family="Arial" font-size="14.00" fill="#666666">[INTEGER]</text>
<polygon fill="none" stroke="#000000" points="46.5,-46 46.5,-76 209.5,-76 209.5,-46 46.5,-46"/>
<text text-anchor="start" x="53.5" y="-58.8" font-family="Arial" font-size="14.00" fill="#000000">tag_id </text>
<text text-anchor="start" x="95.5342" y="-58.8" font-family="Arial" font-size="14.00" fill="#666666">[INTEGER]</text>
<polygon fill="none" stroke="#000000" stroke-width="3" points="44.5,-44.5 44.5,-171.5 210.5,-171.5 210.5,-44.5 44.5,-44.5"/>
</g>
</g>
</svg>
